<?xml version="1.0" standalone="no"?>
<!DOCTYPE svg PUBLIC "-//W3C//DTD SVG 1.1//EN" "http://www.w3.org/Graphics/SVG/1.1/DTD/svg11.dtd" >
<svg xmlns="http://www.w3.org/2000/svg">
<metadata>
This is a custom SVG webfont generated by Font Squirrel.
Copyright   :  
</metadata>
<defs>
<font id="BalticaItalic" horiz-adv-x="1077" >
<font-face units-per-em="2048" ascent="1638" descent="-410" />
<missing-glyph horiz-adv-x="718" />
<glyph unicode=" "  horiz-adv-x="718" />
<glyph unicode="&#x09;" horiz-adv-x="718" />
<glyph unicode="&#xa0;" horiz-adv-x="718" />
<glyph unicode="!" horiz-adv-x="718" d="M127 59q0 10 1 21.5t3 21.5q10 53 44 90t85 37q39 0 56.5 -20.5t21.5 -44.5q2 -4 2 -8v-9q0 -10 -3 -32.5t-13 -48.5q-12 -33 -40 -59.5t-77 -26.5q-39 0 -59.5 22t-20.5 57zM227 373l170 1032h213l-268 -1032h-115z" />
<glyph unicode="&#x22;" horiz-adv-x="808" d="M213 1010l39 452h194l-153 -452h-80zM575 1010l39 452h195l-154 -452h-80z" />
<glyph unicode="#" horiz-adv-x="1863" d="M258 352l25 121h399l66 309h-400l27 121h397l86 397h121l-86 -397h311l86 400h119l-84 -400h395l-26 -121h-396l-65 -309h395l-24 -121h-396l-86 -397h-118l83 397h-311l-84 -397h-121l84 397h-397zM803 473h311l66 309h-312z" />
<glyph unicode="$" horiz-adv-x="1079" d="M33 0l78 362h104l-8 -63q-2 -6 -2 -15v-20q0 -16 4 -37.5t14 -44.5q20 -35 66.5 -67.5t136.5 -48.5l121 573q-20 10 -44 21.5t-46 23.5q-59 31 -113.5 77t-75.5 124q-4 16 -6 31.5t-2 29.5q0 10 1 19.5t1 19.5q2 10 3 19.5t3 19.5q29 150 146.5 253t292.5 112l36 172h99 l-37 -172q25 -2 71 -12.5t97 -41.5q14 -8 27.5 -17t25.5 -22l18 -43h13l-4 47l14 70h107l-72 -336h-105l7 49v6q0 3 2 5v5v5q-2 74 -57.5 128t-121.5 66q-8 2 -17 3.5t-17 1.5h-3h-4l-108 -508q14 -6 26.5 -11.5t26.5 -9.5q109 -45 193 -99t110 -161q4 -14 5 -30.5t1 -32.5 t-1 -34t-5 -36q-4 -23 -11 -47.5t-19 -46.5q-49 -115 -170 -210t-330 -100l-47 -223h-99l50 226q-8 4 -15.5 5t-15.5 3q-57 12 -104.5 27.5t-90.5 56.5l-18 34h-12l2 -36l-15 -70h-106zM430 1079q0 -86 27.5 -135t103.5 -92q6 -4 13.5 -7t15.5 -7l98 465q-18 -2 -36.5 -6.5 t-37.5 -10.5q-70 -23 -127 -73t-57 -134zM522 61q150 8 226.5 84t99.5 164q4 23 7 44.5t3 41.5q0 82 -60.5 126t-160.5 79z" />
<glyph unicode="%" horiz-adv-x="2156" d="M516 -213l1184 1612l63 -41l-1185 -1616zM553 889q0 25 2 49.5t6 46.5q4 18 9 36.5t14 37.5q39 104 131 190t229 86q117 0 178.5 -71.5t61.5 -180.5q0 -176 -103.5 -296.5t-226.5 -145.5q-16 -2 -30.5 -4t-28.5 -2q-100 0 -171 63.5t-71 190.5zM700 887q2 -61 27 -113.5 t86 -52.5q16 0 34.5 4t37.5 14q57 29 104 109t47 221q0 68 -22.5 124t-87.5 56q-68 0 -109 -46t-65 -99q-14 -35 -23.5 -66.5t-13.5 -52.5q0 -4 -1 -8t-3 -8q-4 -16 -7.5 -32.5t-3.5 -33.5v-8v-8zM1098 53q0 25 2 49.5t6 49.5q31 154 138.5 249t228.5 101h8h8 q96 0 168 -62.5t72 -189.5q0 -180 -117 -313.5t-273 -133.5q-10 0 -44.5 3.5t-73.5 23.5q-47 23 -85 74t-38 149zM1245 68q0 -74 18.5 -111t41.5 -53q16 -10 30.5 -12.5t22.5 -2.5q18 0 39.5 5.5t44.5 19.5q51 29 95 103.5t44 215.5q0 82 -27.5 132.5t-85.5 50.5 q-18 0 -37.5 -6.5t-39.5 -20.5q-41 -27 -77 -84t-57 -153l-4 -21l-4 -20q-2 -12 -3 -22.5t-1 -20.5z" />
<glyph unicode="&#x26;" horiz-adv-x="1320" d="M88 356q0 57 34 124t109 134q49 45 114 87t151 83q-4 6 -8 13l-7 14q-8 16 -17 33.5t-18 36.5q-14 35 -24 67.5t-10 59.5q0 25 3 51t9 53q27 106 108.5 194.5t227.5 88.5q88 0 138 -33t69 -72q8 -14 11 -27.5t3 -25.5q0 -47 -10 -107.5t-49 -123.5q-33 -51 -89.5 -102.5 t-148.5 -94.5l244 -504q20 25 37.5 49.5t33.5 48.5q47 78 76 159t53 173h156l-12 -37q-6 -18 -12 -39q-47 -119 -124 -233.5t-171 -198.5l77 -155h160l-14 -72h-311l-56 113q-16 -12 -33.5 -23.5t-33.5 -21.5q-92 -55 -169 -73t-149 -18q-182 0 -253.5 86.5t-88.5 192.5 l-4 50t-2 50zM256 295q0 -86 70.5 -151.5t177.5 -65.5q41 0 107.5 14t138.5 62q8 6 17 13t17 13l-260 539q-156 -88 -209 -186.5t-59 -200.5v-18v-19zM575 1071q0 -23 15.5 -62.5t62.5 -136.5q33 20 59.5 42t45.5 42q74 78 86 145.5t12 90.5v2q0 10 -2 22.5t-8 26.5 q-8 25 -30.5 45.5t-63.5 20.5q-74 0 -116 -56.5t-54 -124.5q-4 -14 -5.5 -28.5t-1.5 -28.5z" />
<glyph unicode="'" horiz-adv-x="446" d="M213 1010l39 452h194l-153 -452h-80z" />
<glyph unicode="(" horiz-adv-x="720" d="M219 46v30q0 88 14.5 169t30.5 158l8 36t9 36q92 424 216 624.5t253 274.5q18 8 34.5 16.5t32.5 14.5l-12 -57q-78 -74 -131 -162t-101 -221q-16 -45 -41.5 -147.5t-54.5 -227.5q-8 -45 -18 -89t-19 -89q-33 -160 -55.5 -305.5t-22.5 -219.5q0 -86 13.5 -142t30.5 -89 q8 -18 16 -29.5t14 -19.5l-12 -60q-104 49 -150.5 184.5t-52.5 284.5q-2 15 -2 30z" />
<glyph unicode=")" horiz-adv-x="720" d="M47 -451v-2l12 58q84 76 157 206t134 386q106 446 130 628.5t24 239.5q0 61 -7.5 113.5t-29.5 101.5q-8 16 -17.5 32.5t-19.5 33.5l12 59q74 -33 115 -104.5t61 -149.5q18 -74 22.5 -140.5t4.5 -103.5v-19v-11q0 -74 -13.5 -169.5t-33.5 -193.5q-14 -70 -31.5 -138.5 t-36.5 -129.5q-14 -51 -28.5 -94t-26.5 -78q-53 -139 -141 -266t-182 -199q-27 -20 -53.5 -36t-51.5 -24z" />
<glyph unicode="*" horiz-adv-x="851" d="M229 1176h205l64 194l63 -194h205l-166 -121l64 -195l-166 121l-166 -121l63 195z" />
<glyph unicode="+" horiz-adv-x="1519" d="M115 567v121h614v615h121v-615h612v-121h-612v-612h-121v612h-614z" />
<glyph unicode="," horiz-adv-x="538" d="M59 -264l107 506h188l-215 -506h-80z" />
<glyph unicode="-" horiz-adv-x="720" d="M168 453l31 145h463l-31 -145h-463z" />
<glyph unicode="." horiz-adv-x="538" d="M127 59q0 8 1 14.5t3 14.5q0 4 1 7t1 7q2 8 6 25.5t17 36.5q12 25 37.5 45t66.5 20q4 0 15.5 -1t23.5 -7q14 -6 27.5 -23.5t13.5 -50.5q0 -14 -3 -31.5t-9 -35.5q-12 -37 -41 -68.5t-80 -31.5q-37 0 -54.5 17t-23.5 40q0 6 -1 11t-1 11z" />
<glyph unicode="/" horiz-adv-x="1118" d="M-37 -57l1045 1484h147l-1042 -1484h-150z" />
<glyph unicode="0" horiz-adv-x="1079" d="M131 481q0 51 8 101.5t19 99.5q10 51 26.5 105.5t38.5 109.5q72 186 202 341t320 155q90 0 150.5 -31t110.5 -96q8 -20 15 -40t13 -38q20 -68 24.5 -138.5t4.5 -164.5q0 -72 -13.5 -156t-39.5 -170q-66 -219 -210.5 -399t-355.5 -180q-186 0 -249.5 154t-63.5 347z M307 297q0 -121 47 -177.5t113 -56.5q143 0 248.5 223.5t146.5 491.5q12 76 18.5 149.5t6.5 143.5q0 125 -45 180.5t-111 55.5q-125 0 -200.5 -126t-120.5 -278q-18 -57 -31.5 -114.5t-24.5 -106.5q-4 -16 -9 -44t-11 -63q-6 -39 -12.5 -84t-10.5 -90q-2 -27 -3 -53t-1 -51z " />
<glyph unicode="1" d="M272 0l15 72h155l234 1095l-160 -145l-43 61l318 287h110l-276 -1298h155l-16 -72h-492z" />
<glyph unicode="2" d="M45 0l426 414q35 33 77 78t85 96q96 117 176 265t80 308q0 63 -38 95t-81 44q-20 4 -38.5 6.5t-35.5 2.5q-20 0 -43.5 -5.5t-46.5 -17.5q-51 -29 -97 -96.5t-73 -196.5h-196q33 158 164 280t335 122q186 0 264 -101.5t78 -269.5q0 -143 -94 -255t-221 -216 q-23 -20 -45 -39l-45 -37l-74 -61q-37 -31 -72 -64l-225 -209h531l32 150h103l-62 -293h-864z" />
<glyph unicode="3" horiz-adv-x="1079" d="M92 254q0 14 2 27.5t4 27.5h197q-2 -12 -3 -24.5t-1 -24.5q0 -78 49 -138.5t152 -60.5q109 0 170 87.5t88 191.5q12 51 18 99t6 87q0 12 -4 26.5t-12 31.5q-23 37 -74 67.5t-139 28.5h-9h-10l21 86q123 0 194.5 54t106.5 120q23 43 32 84t9 66q0 92 -40 155.5t-144 63.5 q-84 0 -132.5 -43t-70.5 -95q-12 -29 -19.5 -55t-9.5 -47h-176q6 25 17.5 53.5t27.5 59.5q45 80 140.5 145.5t267.5 65.5q174 0 245.5 -88t71.5 -218q0 -121 -77 -200.5t-202 -132.5l-53 -9l-2 -14l47 -2q102 -18 145.5 -112.5t43.5 -223.5q0 -164 -135.5 -274.5 t-296.5 -132.5q-23 -4 -45.5 -6.5t-45.5 -2.5q-152 0 -253 80t-101 197z" />
<glyph unicode="4" horiz-adv-x="1079" d="M53 330l901 1040h84l-198 -936h170l-23 -104h-170l-55 -258h156l-15 -72h-475l14 72h156l55 258h-600zM233 434h441l139 647z" />
<glyph unicode="5" d="M98 215v102h154q-2 -12 -3 -26.5t-1 -30.5q0 -8 1 -17.5t1 -19.5q8 -59 49 -109.5t137 -50.5q23 0 47.5 4.5t51.5 12.5q102 35 187 135t85 258q0 137 -35 209t-78 102q-35 27 -66.5 32t-41.5 5q-53 0 -111.5 -8t-118.5 -31q-10 -4 -19 -9t-20 -9l-10 14l252 592h561 l-55 -108h-453l-163 -394q47 18 116.5 30.5t145.5 12.5q170 0 232.5 -126t62.5 -302q0 -201 -140.5 -325.5t-308.5 -161.5q-37 -8 -72.5 -12t-70.5 -4q-12 0 -24.5 1t-24.5 3q-100 12 -183.5 73.5t-83.5 157.5z" />
<glyph unicode="6" d="M133 473q0 35 2 68.5t6 68.5q35 295 205 540t445 245q143 0 210.5 -61.5t67.5 -145.5v-7v-7q-2 -2 -2 -6v-7h-170v4q0 2 2 6v5v4q-2 57 -43 93t-121 36q-162 0 -247 -171t-128 -378l-8 -27h13l12 23q39 49 87 78.5t99 44.5q31 8 59.5 12t55.5 4q23 0 47.5 -3t48.5 -11 q84 -27 154.5 -109t70.5 -250q0 -16 -1 -31.5t-3 -29.5q-25 -182 -173 -331.5t-351 -149.5q-20 0 -41.5 2t-42.5 8q-96 20 -175 124.5t-79 358.5zM301 302q0 -11 2 -21v-24v-24q0 -74 36 -110.5t77 -48.5q23 -8 43 -10.5t37 -2.5q111 0 185.5 119t104.5 262q12 49 17.5 98.5 t5.5 92.5q0 74 -39 112.5t-86 53.5q-18 6 -35.5 8t-34.5 2q-16 0 -63 -11.5t-98 -62.5q-41 -39 -79 -111.5t-63 -189.5q-2 -14 -4 -27.5t-4 -25.5q-2 -14 -2 -28v-27v-24z" />
<glyph unicode="7" d="M240 1092l59 278h848q-88 -160 -174 -322.5t-170 -326.5h168l-19 -84h-190q-70 -147 -138.5 -307t-131.5 -330h-183q72 174 146.5 334t150.5 303h-166l19 84h190q78 145 155 280.5t154 260.5h-579l-39 -170h-100z" />
<glyph unicode="8" horiz-adv-x="1079" d="M109 358q0 119 88 220.5t225 142.5l47 8l2 14l-45 13q-80 35 -104.5 102.5t-26.5 140.5q-2 18 -2 35v33q0 23 5 46.5t17 45.5q39 90 151 164t288 74q164 0 228.5 -66.5t80.5 -146.5q6 -31 8 -60.5t2 -56.5q0 -16 -3 -31.5t-7 -31.5q-23 -78 -93.5 -147t-162.5 -101 l-51 -13l-2 -14l43 -8q61 -20 102 -56t53 -73q4 -10 5 -18.5t1 -16.5q0 -29 -2 -56.5t-8 -56.5q-29 -176 -150.5 -320t-346.5 -144q-174 0 -258 102t-84 276zM287 274l4 -36q2 -18 6 -35l4 -13l4 -12q18 -43 64.5 -80t126.5 -37q109 0 174 92.5t92 202.5q10 37 14 75t4 73 q0 16 -4 35.5t-12 40.5q-16 43 -55 77.5t-107 34.5q-20 0 -40.5 -3t-41.5 -9q-70 -23 -133 -95.5t-90 -224.5q-4 -20 -7 -41.5t-3 -44.5zM453 903q0 -57 41 -93t90 -46q10 -2 19 -3t20 -1q23 0 49 5t55 15q68 27 124 93.5t56 185.5q0 143 -55 197.5t-131 54.5 q-117 0 -179.5 -96.5t-80.5 -210.5q-4 -25 -6 -50.5t-2 -50.5z" />
<glyph unicode="9" d="M133 190v12v9h170v-4v-2v-4v-4q0 -57 41 -95.5t121 -38.5q164 0 245 169t130 372q0 2 1 3t1 3l6 29h-10l-15 -25q-39 -49 -87 -78.5t-99 -43.5q-31 -8 -59.5 -11.5t-55.5 -3.5q-125 0 -223 87t-98 286q0 23 3 46.5t7 47.5q37 168 181.5 309.5t338.5 141.5q20 0 43 -3 t43 -8q94 -27 172 -132t78 -353q0 -76 -14.5 -169t-42.5 -191q-66 -211 -211.5 -385t-386.5 -174q-147 0 -214 63t-65 147zM391 739q0 -74 40 -113.5t89 -54.5q16 -6 33.5 -8t34.5 -2q25 0 53.5 8.5t58.5 26.5q55 37 108.5 119t82.5 223q6 27 8 54.5t2 54.5v23v24 q-2 10 -2 21v24q0 72 -35 107.5t-76 49.5q-23 6 -44 9.5t-37 3.5q-115 0 -184.5 -107.5t-102.5 -236.5q-14 -61 -21.5 -120t-7.5 -106z" />
<glyph unicode=":" horiz-adv-x="538" d="M127 59q0 10 1 21.5t3 21.5q10 53 44 90t85 37q39 0 56.5 -20.5t21.5 -44.5q2 -4 2 -8v-9q0 -10 -3 -32.5t-13 -48.5q-12 -33 -40 -59.5t-77 -26.5q-39 0 -59.5 22t-20.5 57zM285 799v11q0 5 2 11q0 6 1 11.5t1 11.5q10 49 44 87t85 38q31 0 48 -14.5t23 -32.5 q4 -10 6.5 -19.5t2.5 -15.5q0 -10 -4.5 -33t-12.5 -49q-14 -33 -41.5 -60.5t-74.5 -27.5q-4 0 -15.5 1t-23.5 7q-14 6 -27.5 23.5t-13.5 50.5z" />
<glyph unicode=";" horiz-adv-x="538" d="M59 -264l107 506h188l-215 -506h-80zM289 791v8v11q0 5 2 11q0 6 1 11.5t3 11.5q10 49 44 87t83 38q4 0 15.5 -1t23.5 -7q14 -6 27.5 -23.5t13.5 -50.5q0 -14 -3 -31.5t-10 -36.5q-12 -37 -40.5 -69.5t-79.5 -32.5q-39 0 -56.5 20.5t-21.5 44.5q-2 5 -2 9z" />
<glyph unicode="&#x3c;" horiz-adv-x="1519" d="M113 647l1261 537l33 -84l-1028 -453l1028 -450l-33 -86z" />
<glyph unicode="=" horiz-adv-x="1519" d="M115 438v121h1347v-121h-1347zM115 811v121h1347v-121h-1347z" />
<glyph unicode="&#x3e;" horiz-adv-x="1519" d="M141 197l1028 450l-1028 453l33 84l1262 -537l-1262 -536z" />
<glyph unicode="?" horiz-adv-x="833" d="M184 59q0 10 1 21.5t3 21.5q10 53 44 90t85 37q37 0 54.5 -18t23.5 -41q0 -6 1 -11t1 -12q0 -10 -3 -32.5t-13 -48.5q-12 -33 -40 -59.5t-77 -26.5q-39 0 -59.5 22t-20.5 57zM190 512q0 109 64.5 186.5t151.5 149.5q8 8 17 15t17 16q76 63 126 109t77 89q16 25 23.5 50.5 t7.5 54.5q0 68 -25.5 104.5t-79.5 36.5q-16 0 -34.5 -4t-38.5 -12q-31 -14 -60.5 -48t-48.5 -94h-160q4 16 16.5 48t39.5 69q37 47 106.5 87t185.5 40q123 0 177.5 -42t72.5 -91q6 -23 9.5 -43.5t3.5 -38.5q0 -100 -61.5 -184t-135.5 -152q-25 -20 -48.5 -40.5t-45.5 -39.5 q-123 -100 -176.5 -158.5t-53.5 -107.5q0 -59 8.5 -76.5t28.5 -17.5q14 0 51 17.5t101 99.5l88 -80q-27 -31 -63.5 -56.5t-75.5 -40.5q-23 -10 -46.5 -15t-43.5 -5q-14 0 -31 2t-33 8q-41 12 -76 49t-35 115z" />
<glyph unicode="@" horiz-adv-x="1951" d="M86 580q0 43 4 86t12 88q55 281 283.5 516t618.5 235h20h20q317 -12 583.5 -211.5t266.5 -588.5q0 -272 -144 -447.5t-345 -175.5q-78 0 -128 25.5t-79 58.5q-10 12 -19.5 23.5t-15.5 21.5q-20 -14 -38.5 -27.5t-39.5 -25.5q-49 -29 -100 -42.5t-111 -13.5 q-154 0 -241.5 112t-87.5 275q0 14 1 28.5t3 29.5q18 193 162.5 351.5t380.5 158.5q41 0 88 -12.5t96 -55.5q16 -14 30.5 -29.5t28.5 -35.5l31 96h170l-170 -563q-23 -76 -31 -116t-8 -56q0 -55 18.5 -83t40.5 -40q10 -4 20.5 -6t18.5 -2q31 0 64 10t67 29q100 57 183.5 189 t83.5 323q0 330 -233.5 529.5t-581.5 199.5t-585 -254t-237 -602q0 -41 4.5 -82t12.5 -82q51 -262 259 -480.5t552 -218.5q63 0 173.5 13.5t231.5 74.5q37 18 75 43t73 58l45 -60q-170 -125 -315.5 -162.5t-276.5 -37.5q-371 0 -594 209.5t-299 463.5q-20 68 -30.5 135 t-10.5 128zM743 473q0 -119 31 -208t144 -89q80 0 137 39t92 88l139 492q-16 96 -73.5 146t-125.5 50q-131 0 -237.5 -158.5t-106.5 -359.5z" />
<glyph unicode="A" horiz-adv-x="1390" d="M-74 0l15 72h133l778 1339h78l297 -1339h133l-14 -72h-494l14 72h170l-82 338h-583l-195 -338h170l-14 -72h-406zM420 498h522l-137 628l2 29h-12l-7 -29z" />
<glyph unicode="B" horiz-adv-x="1269" d="M35 0l14 72h156l260 1226h-156l15 72h606q162 0 234.5 -87t72.5 -202q0 -10 -1 -21t-3 -22q-18 -100 -116.5 -187t-246.5 -106h-20l-2 -12l18 -2q8 0 17.5 -1t19.5 -1q98 -12 181 -75.5t83 -182.5q0 -37 -7 -79t-23 -83q-45 -117 -163 -213t-333 -96h-606zM391 86h240 q133 0 219 90t113 197q4 23 7 45t3 43q0 111 -79 168t-200 57h-174zM537 772h196q127 0 214 92t100 203q2 8 2 16v17q0 76 -48.5 130t-156.5 54h-199z" />
<glyph unicode="C" horiz-adv-x="1472" d="M156 522q2 41 5 80t11 78q59 315 310 514t567 199q31 0 66.5 -4.5t70.5 -14.5q49 -12 96 -37.5t82 -64.5l10 -27h12v33l19 92h119l-82 -379h-119q2 4 3 12.5t1 18.5q2 10 4 23.5t2 27.5q2 10 2 21v18v8q0 4 -2 8q-10 68 -99 123.5t-204 55.5q-262 0 -406.5 -172 t-203.5 -379q-29 -96 -41 -189.5t-12 -169.5q0 -27 10 -63.5t31 -73.5q43 -74 132 -134t234 -60q102 0 230.5 35.5t271.5 154.5l49 -55q-100 -98 -230 -151.5t-268 -63.5q-18 -2 -36.5 -3t-36.5 -1q-270 0 -407.5 113.5t-174.5 281.5q-4 18 -7 36.5t-5 37.5q-2 16 -3 34.5 t-1 36.5z" />
<glyph unicode="D" horiz-adv-x="1454" d="M35 0l14 72h156l260 1226h-156l15 72h528q37 0 118 -6t171 -41q119 -43 216 -154.5t97 -339.5q0 -66 -15.5 -140.5t-45.5 -149.5q-82 -203 -284 -371t-548 -168h-526zM389 86h189q262 0 425.5 165t223.5 363q16 55 24.5 109.5t8.5 105.5q0 23 -3 48l-4 49 q-20 135 -112 246.5t-307 111.5h-191z" />
<glyph unicode="E" horiz-adv-x="1257" d="M35 0l14 72h156l262 1226h-156l15 72h989l-53 -244h-111l31 136h-541l-106 -490h448l35 162h110l-84 -393h-110l31 145h-447l-123 -577h572l41 186h110l-63 -295h-1020z" />
<glyph unicode="F" horiz-adv-x="1204" d="M35 0l14 72h156l262 1228h-156l15 72h1009l-55 -260h-113l33 152h-559l-104 -494h456l35 162h115l-86 -406h-115l33 158h-457l-131 -612h156l-15 -72h-493z" />
<glyph unicode="G" horiz-adv-x="1546" d="M172 524q0 31 2 61.5t8 63.5q41 279 262.5 512.5t587.5 233.5q33 0 69 -4.5t73 -12.5q74 -16 142 -49t107 -80l15 -24h12l2 24l25 121h110l-82 -375h-110q6 16 8 32.5t2 31.5q0 115 -119 181.5t-262 68.5h-3h-3q-238 0 -376 -143.5t-202 -313.5q-41 -104 -57 -202.5 t-16 -164.5q0 -35 7 -81t23 -93q35 -94 124 -171t263 -77q33 0 70 5.5t72 13.5q80 20 153.5 60t122.5 94l64 294h-205l18 86h379l-131 -618h-65l-35 119q-31 -20 -61.5 -37t-61.5 -31q-92 -41 -182.5 -55t-171.5 -14q-260 0 -383 108.5t-166 239.5q-16 53 -22.5 103t-6.5 93 z" />
<glyph unicode="H" horiz-adv-x="1628" d="M35 0l14 72h156l260 1226h-156l15 72h493l-14 -72h-156l-112 -528h765l113 528h-156l15 72h493l-14 -72h-156l-260 -1226h156l-14 -72h-494l14 72h156l129 612h-766l-129 -612h156l-15 -72h-493z" />
<glyph unicode="I" horiz-adv-x="681" d="M35 0l14 72h156l262 1226h-156l15 72h493l-14 -72h-156l-262 -1226h156l-15 -72h-493z" />
<glyph unicode="J" horiz-adv-x="919" d="M-46 248q1 16 5 33l178 20q-4 -23 -6 -43t-2 -39q0 -70 24.5 -104.5t53.5 -46.5q20 -10 39.5 -12.5t29.5 -2.5q94 0 143.5 68.5t74.5 150.5q10 35 17 70t13 64l191 892h-156l14 72h494l-14 -72h-156l-192 -911q-6 -31 -21.5 -83t-46.5 -109q-45 -82 -134 -151t-243 -69 q-33 0 -66.5 3.5t-70.5 11.5q-82 16 -127 79q-43 60 -43 139q0 22 1 40z" />
<glyph unicode="K" horiz-adv-x="1460" d="M35 0l14 72h156l262 1226h-156l15 72h493l-14 -72h-156l-141 -667l731 667h-162l15 72h419l-14 -72h-160l-491 -460l350 -766h152l-15 -72h-506l15 72h149l-286 635l-226 -207l-92 -428h156l-15 -72h-493z" />
<glyph unicode="L" horiz-adv-x="1128" d="M35 0l14 72h156l262 1226h-156l15 72h493l-14 -72h-156l-254 -1189h518l39 184h123l-61 -293h-979z" />
<glyph unicode="M" horiz-adv-x="1951" d="M35 0l14 72h156l375 1228h-154l14 70h336l254 -866v-19h12l5 19l600 866h333l-14 -70h-154l-118 -1228h155l-14 -72h-494l15 72h155l86 1073l9 22h-13l-10 -24l-635 -899h-20l-269 899l-8 35h-12l-10 -35l-328 -1071h156l-17 -72h-405z" />
<glyph unicode="N" horiz-adv-x="1622" d="M35 0l14 72h154l260 1226h-154l15 72h309l627 -999l14 -35h12l4 35l199 927h-172l14 72h426l-14 -72h-154l-278 -1321h-25l-739 1164l-4 22h-13v-24l-227 -1067h172l-14 -72h-426z" />
<glyph unicode="O" horiz-adv-x="1603" d="M172 453v20v19q0 51 1 99t11 95q0 4 1 9t3 10q61 258 285.5 473t560.5 215h22q11 0 23 -2q197 -10 361 -125t164 -348q0 -373 -259.5 -655.5t-611.5 -282.5q-248 0 -404.5 134t-156.5 339zM367 506q0 -14 1 -29.5t1 -30.5q16 -143 106 -263t277 -120q264 0 448 230.5 t207 507.5q0 16 1 32.5t1 32.5q0 193 -107.5 317t-285.5 124q-29 0 -56.5 -3.5t-56.5 -11.5q-166 -39 -313.5 -193.5t-202.5 -412.5q-8 -45 -14 -89t-6 -91z" />
<glyph unicode="P" horiz-adv-x="1191" d="M35 0l14 72h156l260 1228h-156l15 70h585q193 0 263.5 -101.5t76.5 -224.5q2 -8 2 -17v-19q0 -190 -166.5 -328.5t-412.5 -138.5q-49 0 -90 7t-72 15q-4 0 -8 1t-8 3l-107 -495h170l-14 -72h-508zM510 649q35 -12 77 -17t95 -5q133 0 218 69.5t124 155.5q16 35 24.5 69.5 t8.5 63.5q0 127 -56.5 213t-177.5 86h-180z" />
<glyph unicode="Q" horiz-adv-x="1609" d="M172 453q0 68 12.5 140.5t34.5 143.5q78 246 285 451t536 205h22q11 0 23 -2q197 -10 361 -125t164 -348q0 -254 -123 -483.5t-348 -356.5l129 -195l-148 -73l-139 204q-63 -18 -125.5 -27.5t-122.5 -9.5q-229 0 -395 129.5t-166 346.5zM367 506q0 -213 115.5 -329 t275.5 -116q29 0 57.5 3.5t56.5 11.5l29 8q14 4 29 10l-99 144l142 88l102 -156q86 66 145.5 142.5t98.5 156.5q55 111 75.5 216.5t20.5 180.5q0 195 -108.5 318t-284.5 123q-272 0 -456.5 -238t-198.5 -522v-21v-20z" />
<glyph unicode="R" horiz-adv-x="1304" d="M35 0l14 72h156l262 1226h-156l15 72h571q217 0 278.5 -105.5t63.5 -232.5v-11v-11q0 -27 -7 -54.5t-20 -56.5q-41 -88 -139 -162.5t-242 -85.5h-18l-2 -14l35 -8q25 -10 39 -27.5t26 -48.5q18 -47 44 -129t87 -217q29 -68 65 -103.5t99 -35.5q10 0 19.5 1t19.5 3 l-14 -70l-12 -4l-13 -4q-25 -8 -49 -11t-57 -3q-68 0 -105 13t-69 60q-25 39 -53.5 104.5t-71.5 168.5q-61 152 -85 207t-38 67q-6 4 -12.5 5t-14.5 1h-3h-144l-117 -534h156l-15 -72h-493zM522 692h174q143 0 240.5 116t110.5 255q2 8 2 17v20q0 74 -37 111.5t-80 54.5 q-39 14 -72 16t-43 2h-166z" />
<glyph unicode="S" horiz-adv-x="1089" d="M37 0l78 362h104l-10 -67q-2 -8 -2 -15v-14v-12q0 -6 2 -12q8 -70 72.5 -126.5t205.5 -56.5q152 0 232 61.5t112 135.5q16 39 23.5 75t7.5 64q0 53 -27.5 88t-82.5 68q-45 27 -106.5 53.5t-141.5 61.5q-18 8 -40 19t-42 26q-55 39 -102.5 112.5t-47.5 202.5 q0 156 139.5 253t307.5 110q10 2 22 2h25q104 0 162.5 -24t87.5 -52l9 -9q5 -5 9 -12l15 -30h10v43l12 63h107l-72 -336h-105l7 51v56q0 14 -5.5 32.5t-15.5 38.5q-20 35 -65 65t-125 30q-25 0 -50.5 -2t-50.5 -9q-98 -16 -180 -69t-82 -148q0 -109 61.5 -166t161.5 -102 q23 -10 48.5 -21.5t52.5 -23.5q25 -10 52.5 -22.5t55.5 -28.5q55 -29 104.5 -76t67.5 -125q4 -14 5 -30.5t1 -32.5t-1 -34t-5 -36q-33 -162 -181 -284t-388 -122q-39 0 -86 5.5t-94 23.5q-29 12 -58.5 30.5t-56.5 45.5l-6 26h-12l4 -26l-17 -80h-106z" />
<glyph unicode="T" horiz-adv-x="1204" d="M229 1106l56 264h1095l-57 -264h-113l35 156h-340l-254 -1190h156l-14 -72h-500l14 72h156l254 1190h-340l-35 -156h-113z" />
<glyph unicode="U" horiz-adv-x="1505" d="M268 344q0 39 4 75t11 62q2 8 3 16.5t3 14.5l168 786h-156l14 72h508l-14 -72h-170l-168 -786q-2 -6 -4 -18.5t-4 -28.5q-4 -20 -7 -49t-3 -60q0 -16 1 -31.5t3 -31.5q12 -86 72.5 -158t211.5 -72q182 0 280.5 94.5t147.5 207.5q29 66 44.5 127t23.5 104l147 702h-170 l15 72h424l-15 -72h-155l-174 -819q-49 -229 -213 -364t-379 -135q-236 0 -329 86t-112 192q-4 20 -6 43t-2 43z" />
<glyph unicode="V" horiz-adv-x="1425" d="M201 1298l14 72h584l-13 -72h-204l166 -1013l2 -37h12l14 37l594 1013h-201l15 72h487l-14 -72h-178l-758 -1298h-129l-221 1298h-170z" />
<glyph unicode="W" horiz-adv-x="2017" d="M203 1298l12 72h508l-14 -72h-179l115 -1024l-2 -22h10l6 22l580 1096h94l107 -1096l-4 -22h12l10 22l543 1024h-174l14 72h422l-14 -72h-142l-700 -1298h-123l-100 1028l2 25h-12l-9 -25l-549 -1028h-118l-150 1298h-145z" />
<glyph unicode="X" horiz-adv-x="1492" d="M6 0l14 72h150l555 620l-303 606h-141l14 72h524l-14 -72h-180l229 -462h12l8 16l416 446h-172l15 72h430l-15 -72h-141l-498 -532l340 -694h133l-14 -72h-526l14 72h180l-250 530l-6 14h-12l-10 -14l-475 -530h172l-15 -72h-434z" />
<glyph unicode="Y" horiz-adv-x="1214" d="M201 1298l16 72h518l-14 -72h-172l182 -624v-23h12l11 23l463 624h-173l17 72h428l-14 -72h-144l-569 -757l-98 -469h151l-14 -72h-492l17 72h157l95 448l-238 778h-139z" />
<glyph unicode="Z" horiz-adv-x="1239" d="M6 0l1075 1262h-647l-35 -162h-116l59 272h1032l-1069 -1263h721l31 149h112l-55 -258h-1108z" />
<glyph unicode="[" horiz-adv-x="720" d="M92 -446l393 1845h332l-20 -94h-156l-350 -1655h155l-20 -96h-334z" />
<glyph unicode="\" horiz-adv-x="1118" d="M115 1427h143l791 -1484h-144z" />
<glyph unicode="]" horiz-adv-x="720" d="M-8 -446l20 96h156l352 1655h-155l20 94h332l-391 -1845h-334z" />
<glyph unicode="^" horiz-adv-x="991" d="M229 1083l338 338l338 -338h-172l-166 166l-166 -166h-172z" />
<glyph unicode="_" horiz-adv-x="1370" d="M0 -344h1370v-143h-1370v143z" />
<glyph unicode="`" horiz-adv-x="444" d="M170 1434h240l165 -293h-79z" />
<glyph unicode="a" horiz-adv-x="1126" d="M111 330q0 281 157.5 460t354.5 179q90 0 142 -35t77 -76q12 -18 19 -37.5t11 -34.5l41 164l158 23l-170 -694q-2 -8 -6 -27t-8 -41v-5q0 -3 -2 -5q-4 -27 -8.5 -50.5t-4.5 -31.5q0 -4 1 -9.5t4 -9.5q4 -12 14 -23t27 -11q12 0 27.5 6t35.5 18q10 6 17.5 10t13.5 9h2 q4 2 8 5t10 5l31 -56q-57 -41 -101 -62t-83 -21q-63 0 -97 20t-49 47q-6 10 -8 21.5t-2 19.5v7v7v19q0 8 2 14h-10q-20 -45 -74.5 -82t-116.5 -55q-27 -8 -52.5 -13t-47.5 -5q-25 0 -51.5 4t-55.5 12q-78 25 -142 101.5t-64 232.5zM289 330q0 -141 56 -197.5t130 -56.5 q14 0 27.5 2t27.5 4q72 18 137.5 80.5t92.5 171.5l78 313q2 6 3 14.5t1 16.5q0 16 -4 35.5t-13 40.5q-18 51 -63 93t-121 42q-115 0 -199 -113.5t-123 -251.5q-14 -51 -22 -101t-8 -93z" />
<glyph unicode="b" horiz-adv-x="1114" d="M94 0l277 1294h-148l15 72h311l-107 -489l-18 -48h12q10 12 24.5 26.5t35.5 31.5q39 31 99 56.5t146 25.5q147 0 223 -71t95 -155q4 -16 6 -31.5t2 -31.5q0 -51 -7 -105.5t-22 -111.5q-45 -182 -171 -334t-343 -152q-90 0 -163.5 35t-102.5 131l-104 -143h-60zM324 279 q0 -109 52 -158t116 -55q4 -2 9 -3h11q33 0 72 10.5t80 35.5q61 39 119.5 124.5t90.5 239.5q10 35 14.5 72t4.5 76q0 100 -45 180t-164 80q-109 0 -169 -52.5t-91 -115.5q-20 -43 -31.5 -83t-15.5 -63l-21 -94l-20 -94q-6 -27 -9 -52t-3 -48z" />
<glyph unicode="c" horiz-adv-x="987" d="M111 471q0 186 124.5 310t274.5 167q37 10 71.5 15.5t69.5 5.5q82 0 130 -21.5t77 -48.5l3 -3l3 -3l8 -21h11l-2 27l8 47h96l-57 -272h-97q4 12 5.5 24.5t1.5 24.5q0 72 -57.5 117t-153.5 45q-135 0 -213 -124t-111 -272q-12 -55 -17 -108t-5 -100q0 -98 54 -148.5 t120 -60.5q8 0 16 -1t16 -1q41 0 78 5t74 17q43 14 87 37t93 55l37 -71q-66 -49 -148.5 -83t-168.5 -46q-18 -2 -36 -3t-34 -1q-193 0 -275.5 135t-82.5 356z" />
<glyph unicode="d" horiz-adv-x="1234" d="M111 268q0 47 6 98.5t16 102.5q45 186 171 343t343 157q94 0 160.5 -36t87.5 -120h10v53q23 117 46.5 226.5t45.5 210.5h-147l14 71h312l-244 -1138q-2 -6 -4 -17.5t-4 -23.5q0 -4 -1 -7.5t-1 -7.5q-2 -16 -4.5 -31.5t-2.5 -23.5q0 -27 13.5 -41t42.5 -14q10 0 24.5 3 t28.5 9q8 2 15.5 5t15.5 5q10 6 20 10t15 9l30 -64q-25 -14 -56.5 -28.5t-64.5 -22.5q-27 -6 -51 -11t-47 -5q-68 0 -109 33q-40 32 -40 86q0 13 1 22q1 8 3 16h-11q-27 -51 -65.5 -81.5t-81.5 -47.5q-49 -18 -93 -23t-69 -5h-3h-3q-119 2 -219 70t-100 218zM285 324 q0 -98 45 -178t164 -80q106 0 167.5 52t92.5 115q20 43 31.5 83t15.5 63l20 94l21 94q6 29 9 55.5t3 47.5q0 104 -50 153t-112 56q-6 2 -12 2h-12q-33 0 -72 -9.5t-78 -31.5q-63 -39 -122.5 -125t-92.5 -242q-8 -27 -12 -57.5t-6 -61.5v-15v-15z" />
<glyph unicode="e" horiz-adv-x="1038" d="M111 266q0 45 4 91t14 94q39 195 165 356.5t357 161.5q182 0 259 -101.5t85 -224.5q2 -8 2 -17v-20q0 -14 -1 -29.5t-3 -31.5l-704 -105q-8 -33 -11.5 -62.5t-3.5 -55.5q0 -131 70 -199t164 -68q78 0 168 33t190 125l41 -59q-6 -4 -36.5 -31t-84.5 -57 q-55 -33 -133 -59.5t-172 -26.5q-18 0 -70.5 3t-109.5 21q-72 25 -131 84t-59 178zM303 518l516 78q2 16 3 31.5t1 29.5q-2 121 -47 175.5t-100 68.5q-10 2 -21.5 3t-21.5 1q-111 0 -203 -111.5t-127 -275.5z" />
<glyph unicode="f" horiz-adv-x="634" d="M0 0l14 72h148l172 802h-148l15 72h147l33 154q29 135 120 212t195 77q55 0 97.5 -21.5t76.5 -71.5l-106 -94q-8 47 -27.5 84t-58.5 37q-41 0 -64.5 -30.5t-38.5 -67.5q-8 -23 -14 -44.5t-8 -35.5l-43 -199h199l-15 -72h-200l-172 -802h147l-14 -72h-455z" />
<glyph unicode="g" horiz-adv-x="1155" d="M45 -305l125 100q18 -63 46 -102t56 -60q33 -25 64 -30.5t47 -5.5q29 0 60.5 6t64.5 20q57 29 111.5 97.5t82.5 201.5l33 148l17 47h-11q-53 -70 -131 -103.5t-174 -33.5q-143 0 -219 67.5t-98 149.5q-6 18 -8 35.5t-2 35.5q0 57 12 137t41 166q49 150 163.5 274 t321.5 124q23 0 47.5 -2t46.5 -9q45 -12 87 -41.5t75 -89.5l68 119h258l-15 -72h-147l-182 -858q-4 -18 -9.5 -38.5t-11.5 -40.5q-43 -152 -153.5 -280t-362.5 -128q-23 0 -74 6t-106 37q-33 18 -64.5 48t-58.5 75zM283 324q0 -129 58 -186.5t126 -63.5q8 -2 14 -2h13 q18 0 38.5 3t40.5 11q72 23 136.5 95.5t93.5 203.5l20 94l19 94q2 6 3 13.5t3 13.5q2 4 3 9t1 9q2 8 3 15.5t1 15.5q0 12 -1 26.5t-3 29.5q-10 68 -52 124t-132 56q-14 0 -30.5 -2t-31.5 -4q-94 -20 -179 -113.5t-124 -286.5q-10 -45 -15 -82.5t-5 -72.5z" />
<glyph unicode="h" horiz-adv-x="1155" d="M0 0l14 72h148l260 1224h-148l15 72h309l-106 -498l-17 -43h12l21 29q57 51 131 82t156 31q16 0 33.5 -2t35.5 -4q61 -14 113.5 -62.5t52.5 -159.5q0 -25 -3 -53.5t-11 -60.5l-88 -391q-2 -4 -4 -15.5t-4 -23.5q0 -4 -1 -8.5t-1 -8.5q-2 -18 -4.5 -33.5t-2.5 -21.5 q0 -29 14.5 -42t41.5 -13q10 0 24.5 3t28.5 9q8 2 15 5t16 5q10 6 20 10t14 9l25 -64q-35 -16 -72 -31.5t-75 -25.5q-18 -4 -37 -7t-37 -3q-80 0 -108.5 31.5t-32.5 72.5v6v8q0 16 2 30.5t4 27.5q2 4 3 7t1 7l92 412q2 6 3 14t3 16q4 18 8 40t4 44q2 8 2 16v13 q0 57 -28.5 102t-112.5 45q-109 0 -171 -60t-93 -132q-16 -35 -25.5 -70t-15.5 -61l-102 -477h147l-14 -72h-455z" />
<glyph unicode="i" horiz-adv-x="638" d="M178 118q2 13 4 27l180 729h-147l14 72h314l-178 -710q-2 -6 -4.5 -18.5t-6.5 -27.5q0 -2 -1 -5t-1 -5q-4 -18 -6 -33.5t-2 -21.5q0 -29 13.5 -42t39.5 -13q10 0 24.5 4t31.5 8q8 2 15 5t13 5q12 6 22.5 10t14.5 9l19 -64q-61 -31 -120 -50.5t-104 -19.5q-8 0 -16 1.5 t-16 1.5q-39 6 -73 30q-32 23 -32 78q0 16 2 30zM436 1260q0 4 1 7t1 7q8 29 40 54.5t67 29.5q4 2 8 2h8q29 0 48.5 -14.5t27.5 -36.5q0 -2 1 -6.5t1 -6.5v-7v-7v-5v-5q0 -4 -1 -6t-1 -6q-10 -39 -44 -70t-81 -31q-45 0 -60.5 31t-15.5 70z" />
<glyph unicode="j" horiz-adv-x="577" d="M-236 -391l109 72q10 -45 27.5 -71t58.5 -26q61 0 97 67.5t55 147.5q2 4 3 8.5t1 8.5l225 1058h-174l14 72h338l-225 -1046q-6 -23 -19.5 -74t-42.5 -109q-37 -76 -105.5 -138t-176.5 -62q-57 0 -104.5 17.5t-80.5 74.5zM403 1257q0 41 28 65t61 32q8 2 16 3t16 1 q45 0 62.5 -31t17.5 -70q0 -33 -24.5 -56t-55.5 -36q-10 -4 -21 -6t-22 -2q-29 0 -53.5 24.5t-24.5 75.5z" />
<glyph unicode="k" horiz-adv-x="1118" d="M-6 0l14 72h148l260 1231h-148l15 71h311l-191 -891l447 391h-170l16 72h412l-16 -72h-123l-334 -290l285 -512h143l-14 -72h-484l15 72h133l-211 393l-125 -107l-62 -286h129l-14 -72h-436z" />
<glyph unicode="l" horiz-adv-x="577" d="M-14 0l14 72h147l261 1231h-148l14 71h312l-279 -1302h148l-15 -72h-454z" />
<glyph unicode="m" horiz-adv-x="1665" d="M0 0l14 72h148l170 802h-148l15 72h309l-14 -76l-17 -41h10q25 31 50.5 53.5t50.5 37.5q55 33 105 41t87 8q16 0 45 -3t60 -16q35 -16 66.5 -47t43.5 -88v-24h11l12 24q25 35 50.5 58.5t49.5 41.5q57 37 110.5 45.5t92.5 8.5q139 0 189.5 -61.5t50.5 -141.5 q0 -12 -1 -25.5t-4 -27.5q-2 -14 -5 -27.5t-7 -26.5l-112 -426q-2 -4 -4.5 -15t-4.5 -25q0 -4 -1 -7.5t-1 -7.5q-2 -18 -4 -33.5t-2 -21.5q0 -29 14.5 -42t40.5 -13q10 0 23.5 3t28.5 9q8 2 15 5t15 5q12 6 21.5 10t13.5 9l33 -64q-51 -27 -109.5 -47.5t-117.5 -20.5 q-82 0 -111 36t-33 79v8v9q0 18 2 35.5t6 29.5q0 6 2.5 11t2.5 10l110 409q10 39 16.5 73t6.5 62q0 59 -31 95t-109 36q-92 0 -148 -52t-87 -116q-20 -45 -32.5 -84.5t-16.5 -62.5l-103 -483h148l-15 -72h-454l14 72h148l114 534q2 6 3 14.5t3 16.5q2 14 5.5 30.5t3.5 32.5 q2 6 2 15v14q0 55 -28 98t-112 43q-94 0 -149 -55t-84 -123q-18 -39 -27.5 -74.5t-15.5 -62.5l-102 -483h131l-15 -72h-438z" />
<glyph unicode="n" horiz-adv-x="1181" d="M0 0l14 72h148l168 794h-148l15 72h307l-27 -104h12l21 30q6 6 13 12.5t16 12.5q70 53 137 68.5t125 15.5q133 0 194.5 -66.5t61.5 -171.5q0 -25 -3 -52.5t-12 -55.5l-94 -391q0 -4 -1 -9.5t-3 -11.5q-2 -8 -3 -16.5t-3 -18.5q-2 -14 -3 -29.5t-1 -25.5q0 -25 10 -40 t43 -15q10 0 24.5 3t28.5 9q8 2 15.5 5t15.5 5q10 6 20.5 10t14.5 9l31 -64q-25 -14 -57.5 -28.5t-67.5 -22.5q-29 -8 -54.5 -12t-48.5 -4q-76 0 -106.5 28.5t-36.5 65.5q0 6 -1 14t-1 14q0 12 2 24.5t4 20.5q0 8 2 13.5t2 9.5l109 465q6 25 8 46t2 42q0 84 -45 123t-117 39 q-14 0 -58 -6.5t-93 -36.5q-45 -27 -85 -81t-61 -149l-112 -540h147l-14 -72h-455z" />
<glyph unicode="o" horiz-adv-x="1110" d="M111 322q0 39 3 76.5t11 74.5q47 219 210 357.5t359 138.5q164 0 254 -85t113 -190q4 -16 6 -34.5t2 -34.5q0 -59 -13.5 -133t-45.5 -150q-25 -57 -63 -111.5t-91 -103.5q-12 -12 -25.5 -22.5t-25.5 -18.5q-88 -66 -173 -86t-151 -20q-164 0 -255 89t-111 195 q-2 14 -3 29t-1 29zM285 330q0 -12 2 -53t18 -87q16 -55 60.5 -100t132.5 -45q164 0 280.5 163t116.5 404q0 133 -54.5 211t-160.5 78q-141 0 -233.5 -118.5t-131.5 -262.5q-4 -12 -7 -23.5t-5 -23.5q-8 -33 -13 -68.5t-5 -70.5v-1v-3z" />
<glyph unicode="p" horiz-adv-x="1169" d="M35 -430l16 72l285 1232h-148l15 72h309l-16 -69l-23 -60l12 2q47 72 130 111t184 39q129 0 224 -70t95 -219q0 -16 -1 -33.5t-1 -36.5q-20 -238 -166.5 -434t-378.5 -196q-102 0 -163.5 36.5t-79.5 106.5h-13v-37l-102 -444h162l-15 -72h-325zM358 272q0 -104 53.5 -152 t118.5 -54h10h11q35 0 76 10t86 35q63 39 123.5 123.5t95.5 238.5q8 29 13 60.5t7 62.5q2 8 2 16v17q0 96 -47 174t-168 78q-16 0 -34.5 -2t-34.5 -9q-82 -23 -154 -97.5t-100 -205.5l-21 -94l-22 -94q-8 -29 -11.5 -56.5t-3.5 -50.5z" />
<glyph unicode="q" horiz-adv-x="1163" d="M111 268q0 57 10 128t33 143q51 162 168.5 296t324.5 134q20 0 52 -3t65 -14q47 -16 87 -51t52 -104l74 149h254l-14 -72h-148l-264 -1232h147l-14 -72h-469l14 72h162l92 434l15 39h-11q-57 -68 -128.5 -101.5t-176.5 -33.5q-141 0 -216 65.5t-99 144.5q-4 20 -7 40 t-3 38zM283 317q0 -135 63.5 -191t136.5 -60h7h6q14 0 29.5 2t31.5 6q78 20 147.5 96t98.5 209l20 94l19 94q2 6 3 13.5t3 13.5q2 4 3 9t1 9q2 8 3 15.5t1 15.5q0 12 -1 25.5t-3 25.5q-10 70 -52 128.5t-132 58.5q-18 0 -37 -2t-37 -9q-90 -25 -171 -119t-120 -278 q-10 -45 -15 -84t-5 -72z" />
<glyph unicode="r" horiz-adv-x="761" d="M0 0l14 72h148l170 802h-148l15 72h301l-19 -94l-10 -35h12l17 25q35 53 93 90t126 37q55 0 90 -20.5t59 -69.5l-125 -103q-10 25 -21 39t-24 21q-12 6 -23 8t-22 2q-12 0 -25.5 -3t-27.5 -9q-53 -23 -101 -89.5t-71 -171.5l-106 -501h147l-14 -72h-455z" />
<glyph unicode="s" horiz-adv-x="880" d="M41 0l61 289h97q-4 -16 -7.5 -31.5t-3.5 -30.5q0 -78 56.5 -123t122.5 -53q8 -2 15 -2h15q94 0 150.5 47t75.5 103q0 4 2 8t2 8q2 4 3 8t1 10v9v8q0 8 -1 15t-3 16q-8 27 -38 46t-71 38q-23 10 -50.5 21t-53.5 26q-82 37 -149.5 97t-67.5 175q0 123 97 196.5t214 86.5 q10 0 20.5 1t20.5 1q29 0 56.5 -4t53.5 -15q23 -10 44.5 -24.5t46.5 -36.5l4 -19h12l-2 29l8 47h92l-53 -252h-92q4 16 6 29.5t2 26.5q0 68 -46 103.5t-101 41.5q-8 2 -16 2h-13q-16 0 -34.5 -3t-39.5 -9q-53 -16 -97 -54t-44 -100q0 -102 53 -126.5t125 -33.5q14 0 27 -2 l24 -4q68 -10 128.5 -46t86.5 -144q4 -14 5 -28.5t1 -31.5q0 -14 -1 -27.5t-5 -27.5q-27 -133 -129 -204.5t-221 -75.5h-7h-7q-61 0 -106.5 9t-86.5 38q-14 10 -28.5 23t-28.5 30l-6 16h-10l4 -22l-17 -74h-96z" />
<glyph unicode="t" horiz-adv-x="688" d="M182 119v8v8q0 18 2 34.5t6 31.5q0 8 2.5 14t2.5 12l139 647h-144l15 72h143l49 234l187 120l-76 -354h205l-15 -72h-204l-142 -663q0 -6 -2 -11t-2 -10q-2 -4 -3 -8t-1 -8q-2 -4 -3 -10t-1 -12q0 -4 -1 -8.5t-1 -8.5v-8v-8v-13q0 -6 2 -12q4 -20 15.5 -34.5t41.5 -14.5 q20 0 41 12.5t39 32.5q14 14 26.5 32.5t26.5 39.5l68 -72q-76 -82 -139.5 -96t-89.5 -14q-106 0 -144.5 43t-42.5 96z" />
<glyph unicode="u" horiz-adv-x="1196" d="M174 874l14 72h310l-136 -635q0 -4 -2 -10t-2 -14q-4 -14 -6 -31.5t-2 -38.5v-9q0 -5 2 -11q4 -51 34 -93.5t116 -42.5q106 0 182 74t102 199l115 540h-147l14 72h311l-153 -710q-2 -4 -4 -15.5t-4 -25.5q0 -4 -1.5 -7.5t-1.5 -7.5q-2 -18 -4 -33.5t-2 -21.5 q0 -29 14.5 -42t41.5 -13q10 0 24.5 3t28.5 9q8 2 15 5t16 5q10 6 20 10t14 9l33 -64q-23 -16 -57.5 -31.5t-69.5 -23.5q-27 -8 -51.5 -12.5t-44.5 -4.5q-61 0 -103 31q-40 29 -41 77q0 3 0.5 8.5t0.5 8.5q0 6 2 13h-13l-20 -31q-6 -6 -13.5 -12.5t-15.5 -12.5 q-70 -53 -137.5 -67.5t-124.5 -14.5q-137 0 -186 62.5t-54 140.5v9v12q0 27 3.5 52t7.5 48q2 6 3 11t1 9l119 555h-148z" />
<glyph unicode="v" horiz-adv-x="999" d="M98 874l15 72h465l-15 -72h-166l111 -659l2 -27h10l15 27l385 659h-166l14 72h360l-14 -72h-94l-524 -874h-117l-154 874h-127z" />
<glyph unicode="w" horiz-adv-x="1476" d="M100 874l15 72h456l-14 -72h-158l70 -600v-28h12l11 28l362 672h68l77 -672v-28h13l10 28l334 600h-176l14 72h408l-15 -72h-129l-487 -874h-94l-80 608l2 33h-11l-12 -33l-336 -608h-94l-117 874h-129z" />
<glyph unicode="x" horiz-adv-x="1046" d="M-41 0l14 72h144l366 395l-194 407h-148l15 72h452l-14 -72h-121l131 -276l254 276h-139l14 72h373l-14 -72h-121l-328 -354l213 -448h137l-14 -72h-463l14 72h142l-152 315l-291 -315h164l-14 -72h-420z" />
<glyph unicode="y" horiz-adv-x="1038" d="M29 -422l96 164q8 -29 26.5 -54.5t43.5 -25.5q47 0 78.5 24.5t56.5 69.5l131 244l-240 874h-137l10 72h467l-10 -72h-172l180 -651l4 -39h12l11 39l342 651h-176l10 72h399l-10 -72h-127l-545 -1040q-10 -16 -19 -33.5t-18 -36.5q-49 -94 -111.5 -171.5t-156.5 -77.5 q-20 0 -48 5t-58 23q-10 8 -19.5 16.5t-19.5 18.5z" />
<glyph unicode="z" horiz-adv-x="954" d="M2 0l750 874h-420l-45 -212h-115l61 284h760l-747 -874h444l45 211h115l-59 -283h-789z" />
<glyph unicode="{" horiz-adv-x="722" d="M72 514l20 84q111 8 173.5 108.5t94.5 217.5q14 49 24.5 94t18.5 86q6 33 21.5 83t46.5 105q41 74 121 139.5t217 81.5l-6 -69q-76 -10 -120 -56.5t-69 -97.5q-20 -43 -28 -82t-13 -59q0 -4 -1 -7t-1 -7q-2 -6 -3 -13.5t-1 -13.5q-29 -158 -93 -306.5t-288 -244.5 q35 -20 60.5 -42.5t44.5 -45.5q37 -45 49 -88t12 -76q0 -57 -11 -117.5t-30 -121.5q-25 -78 -43 -132.5t-22 -101.5v-12v-13q0 -53 22.5 -81.5t48.5 -40.5q10 -6 21.5 -9.5t21.5 -5.5l-28 -71q-100 12 -156.5 63t-73.5 139q0 6 -1 11.5t-1 11.5q-2 6 -2 11v11q0 14 1 26.5 t3 25.5v3v3q6 33 20.5 81t49.5 173q8 29 13 56.5t10 55.5q2 27 4 55.5t2 55.5q0 66 -35 97.5t-94 35.5z" />
<glyph unicode="|" horiz-adv-x="544" d="M258 -487v2220h143v-2220h-143z" />
<glyph unicode="}" horiz-adv-x="722" d="M-20 -401l6 69q100 23 147 88.5t66 141.5q8 27 12 51l8 49q6 43 15.5 91t25.5 97q33 102 108.5 199.5t233.5 171.5q-8 4 -18.5 10t-18.5 13q-49 33 -89 88t-40 139q0 51 10.5 108.5t30.5 131.5q25 80 42.5 132t21.5 99q2 8 2 15v14q0 55 -32 93t-83 44l29 69 q115 -12 172 -69.5t57 -130.5q0 -39 -4 -89t-23 -120q-33 -121 -51 -202t-20 -152v-9v-8q0 -61 35.5 -96t93.5 -39l-21 -84q-117 -10 -178 -114.5t-96 -227.5q-10 -43 -19.5 -84t-17.5 -80q-6 -31 -21.5 -81t-46.5 -105q-41 -74 -120.5 -139.5t-214.5 -81.5z" />
<glyph unicode="~" horiz-adv-x="1181" d="M229 1196q33 96 110 160.5t173 64.5q39 0 69.5 -6t61.5 -16q14 -4 31 -10l33 -13q98 -37 139 -43t57 -6q27 0 44.5 11.5t27.5 25.5q6 10 11 19.5t7 13.5l6 9q2 3 4.5 5t3.5 5t3 5h86q-6 -14 -13.5 -29.5t-17.5 -29.5q-8 -14 -16.5 -27.5t-16.5 -25.5t-16 -22.5t-17 -18.5 q-29 -33 -67.5 -54.5t-91.5 -21.5q-45 0 -93.5 11t-97.5 30q-4 2 -7 3t-7 3q-16 4 -31.5 9t-32.5 12q-39 12 -75.5 20t-67.5 8q-39 0 -65.5 -28.5t-47.5 -63.5h-86z" />
<glyph unicode="&#xa1;" horiz-adv-x="718" />
<glyph unicode="&#xa2;" horiz-adv-x="718" />
<glyph unicode="&#xa3;" d="M203 -264l106 506h189l-215 -506h-80zM571 -264l107 506h188l-215 -506h-80z" />
<glyph unicode="&#xa4;" horiz-adv-x="1318" d="M59 170l146 141q-63 80 -98 177.5t-35 199.5q0 23 2 46.5t6 47.5q12 72 43 141.5t82 135.5l-146 141l86 86l144 -143q80 63 176 98t199 33q23 0 46 -2t48 -6q72 -10 141.5 -40t134.5 -81l142 141l84 -86l-140 -141q61 -80 95 -177.5t34 -199.5q0 -23 -2 -46.5t-6 -47.5 q-10 -72 -40 -141.5t-81 -135.5l140 -141l-84 -84l-142 141q-80 -63 -177 -97t-200 -34q-27 0 -55.5 3t-56.5 10q-66 12 -130.5 41.5t-123.5 76.5l-146 -143zM193 684q0 -31 3 -60.5t11 -58.5q16 -59 47 -113.5t74 -97.5q43 -45 97 -75.5t114 -47.5q31 -8 61.5 -12t61.5 -4 t61.5 4t58.5 12q127 35 214 127.5t118 206.5q6 20 9 41t5 41v21v20q0 31 -3 60.5t-11 58.5q-35 133 -128 218t-204 116q-31 10 -61.5 13t-61.5 3t-61.5 -4t-58.5 -12q-127 -33 -214 -126t-118 -208q-4 -18 -8 -40t-6 -42v-20v-21z" />
<glyph unicode="&#xa5;" horiz-adv-x="1026" d="M0 0l16 74h146l200 952q6 25 20.5 72t47.5 100q43 70 129 129t232 59q125 0 193.5 -67.5t68.5 -212.5q0 -86 -53.5 -143.5t-116.5 -90.5q-2 -2 -5.5 -3t-5.5 -3q-23 -10 -48 -18t-52 -12q115 -14 178.5 -92t63.5 -199q0 -45 -7.5 -97.5t-19.5 -107.5q-37 -137 -121 -250 t-223 -113q-92 0 -128 44.5t-42 97.5v11v9v20q0 9 2 17h98q-2 -8 -2 -17v-20q0 -45 17.5 -67.5t38.5 -26.5h5h5q16 0 37.5 13.5t44.5 39.5q45 53 83 160t38 264q0 166 -50.5 219.5t-121.5 53.5h-62l17 75h61q82 0 131 60.5t72 132.5q8 29 12 57.5t4 53.5q0 49 -20.5 74.5 t-44.5 37.5q-20 10 -39 12t-25 2q-14 0 -29.5 -2t-29.5 -6q-57 -14 -110.5 -72.5t-82.5 -193.5l-203 -952h107l-16 -74h-410z" />
<glyph unicode="&#xa6;" horiz-adv-x="544" d="M258 -487v2220h143v-2220h-143z" />
<glyph unicode="&#xa7;" d="M127 -96q0 6 1 11t3 11l129 -2q-2 -6 -3 -16t-1 -21v-9q0 -5 2 -9q2 -33 26.5 -60.5t88.5 -27.5q102 0 139 51t39 115v5v5q0 18 -12.5 43t-32.5 49q-10 16 -24.5 31.5t-26.5 30.5l-23 22q-10 10 -20 19q-150 137 -180.5 236t-30.5 171q0 113 90 189.5t196 134.5l39 19 q18 9 37 20q-51 57 -73.5 118.5t-22.5 130.5q0 84 98.5 153t247.5 69q117 0 172 -55.5t55 -127.5v-11q0 -5 -2 -11q0 -6 -1 -11.5t-3 -11.5h-139q4 10 5 21.5t1 19.5q0 47 -36 74t-85 27q-70 0 -109.5 -28t-49.5 -60q0 -4 -1.5 -9.5t-1.5 -9.5q0 -49 32 -107.5t116 -142.5 q18 -16 38.5 -35.5t43.5 -40.5q37 -39 72.5 -84t54.5 -92q8 -18 13 -38.5t5 -38.5q0 -160 -103.5 -266.5t-260.5 -178.5q4 -4 8 -9t8 -9q37 -47 48.5 -89t11.5 -51q0 -14 -1.5 -28.5t-5.5 -28.5q-18 -98 -100 -180t-227 -82q-119 0 -181.5 52t-62.5 130v11v12zM352 586 q0 -70 23.5 -113t56.5 -80l158 -174q33 18 61.5 36.5t53.5 37.5q72 53 103.5 107.5t31.5 103.5q0 57 -19.5 101t-42.5 73l-3 3l-3 3l-170 197q-127 -76 -188.5 -151.5t-61.5 -143.5z" />
<glyph unicode="&#xa8;" horiz-adv-x="1245" d="M35 0l14 72h156l262 1226h-156l15 72h989l-51 -244h-113l31 136h-541l-104 -490h446l35 162h110l-81 -393h-113l31 145h-447l-123 -577h574l39 186h110l-63 -295h-1020zM592 1589v9q0 5 2 12q10 45 49 79.5t90 34.5q47 0 68.5 -30.5t21.5 -83.5q0 -41 -30.5 -69 t-65.5 -40q-12 -2 -22.5 -4t-20.5 -2q-35 0 -64.5 25.5t-27.5 68.5zM991 1610q0 47 42 80.5t95 33.5t73 -35.5t20 -78.5q0 -39 -35 -71t-78 -40q-6 -2 -13.5 -3t-13.5 -1q-45 0 -67.5 32t-22.5 83z" />
<glyph unicode="&#xa9;" horiz-adv-x="1923" d="M143 776q0 375 255 600.5t560 231.5h10h9h12h12q301 -10 554 -234.5t253 -597.5q0 -322 -230 -576.5t-601 -254.5q-322 0 -578 229t-256 602zM260 776.5q0 -325.5 220 -519.5t485 -198h7h5q276 0 495.5 198t219.5 519v3v3q-2 266 -194.5 487.5t-520.5 221.5h-5h-7 q-264 -4 -484.5 -196.5t-220.5 -518zM561 762q0 201 120 319.5t282 118.5q78 0 131 -21.5t86 -50.5l12 -28l10 4l-8 29v47h82v-240h-82q2 90 -62.5 134t-140.5 50q-10 2 -18 2h-17q-14 0 -30.5 -3t-30.5 -9q-68 -23 -122 -105.5t-54 -246.5t74.5 -258t193.5 -94 q80 0 150.5 21.5t134.5 74.5l47 -62q-37 -35 -85 -58.5t-99 -37.5q-37 -10 -75 -15t-71 -5q-180 0 -304 120.5t-124 313.5z" />
<glyph unicode="&#xaa;" horiz-adv-x="1603" d="M172 453v20v19q0 51 1 99t11 95q0 4 1 9t3 10q61 258 285.5 473t560.5 215h22q11 0 23 -2q197 -10 361 -125t164 -348q0 -373 -259.5 -655.5t-611.5 -282.5q-248 0 -404.5 134t-156.5 339zM367 506q0 -14 1 -29.5t1 -30.5q16 -143 106 -263t277 -120q264 0 448 230.5 t207 507.5q0 16 1 32.5t1 32.5q0 193 -107.5 317t-285.5 124q-29 0 -56.5 -3.5t-56.5 -11.5q-166 -39 -313.5 -193.5t-202.5 -412.5q-8 -45 -14 -89t-6 -91zM762 1610q0 43 40 76.5t89 37.5h5h5q47 0 68.5 -30.5t21.5 -83.5q0 -41 -30.5 -69t-65.5 -40q-12 -2 -22.5 -4 t-20.5 -2q-39 0 -64.5 32t-25.5 83zM1159 1610q0 47 42 80.5t95 33.5q55 0 72.5 -35.5t17.5 -78.5q0 -41 -37.5 -75t-82.5 -40h-9h-8q-45 0 -67.5 32t-22.5 83z" />
<glyph unicode="&#xab;" d="M168 508l299 387h139l-295 -387l131 -387h-139zM510 508l301 387h139l-295 -387l131 -387h-139z" />
<glyph unicode="&#xac;" horiz-adv-x="1519" d="M115 567v121h1347v-326h-123v205h-1224z" />
<glyph unicode="&#xad;" horiz-adv-x="1024" />
<glyph unicode="&#xae;" horiz-adv-x="1497" d="M201 997v5v8q4 227 171 416.5t447 189.5q264 0 425 -168t190 -371q4 -18 5 -38.5t1 -41.5q0 -12 -1 -24t-1 -25q-18 -215 -185.5 -393t-433.5 -178h-12h-10q-223 10 -409.5 178t-186.5 442zM313 997q0 -215 137.5 -347t303.5 -156q16 -2 32.5 -3.5t32.5 -1.5h11h12 q182 10 333.5 147.5t151.5 360.5q0 195 -141.5 350.5t-366.5 155.5q-195 0 -350.5 -140.5t-155.5 -365.5zM537 674v61h81v578h-81v61h311q100 0 152.5 -41t70.5 -90q6 -16 8 -30.5t2 -28.5v-14q0 -7 -2 -13q-8 -51 -43 -96t-92 -60l-18 -4v-2l10 -2q2 -4 4 -7t4 -5 q2 -4 4 -6l4 -4q18 -25 28.5 -42.5t20.5 -33.5q10 -18 23.5 -39.5t40.5 -56.5q8 -10 15 -19.5t16 -15.5q14 -14 30.5 -21.5t36.5 -7.5h13q6 0 14 2v-59q-6 -2 -14.5 -5t-16.5 -5q-4 -2 -10 -3t-10 -1h-5h-6h-6h-6h-3h-3q-23 2 -40 4t-32 12q-25 12 -51 48t-78 112 q-61 94 -77.5 113.5t-20.5 19.5h-78v-238h82v-61h-278zM733 1042h86q61 0 101.5 40t40.5 94q0 8 -1.5 18t-5.5 20q-8 35 -40.5 63t-98.5 28h-82v-263z" />
<glyph unicode="&#xaf;" horiz-adv-x="718" />
<glyph unicode="&#xb0;" horiz-adv-x="716" d="M229 1331q0 82 53.5 135.5t118.5 63.5q6 0 13.5 1t15.5 1h5h7q70 -4 129.5 -59.5t59.5 -141.5q0 -92 -62.5 -146.5t-138.5 -54.5t-138.5 56.5t-62.5 144.5zM313 1331q0 -53 35 -83.5t76 -33.5h3h3q47 0 82 33t35 84q0 53 -36 85t-81 32t-81 -33t-36 -84z" />
<glyph unicode="&#xb1;" horiz-adv-x="2154" d="M403 12v119h1348v-119h-1348zM403 768v121h615v442h121v-442h612v-121h-612v-440h-121v440h-615z" />
<glyph unicode="&#xb2;" horiz-adv-x="1390" d="M-74 0l15 72h133l778 1339h78l297 -1339h133l-14 -72h-494l14 72h170l-82 338h-583l-195 -338h170l-14 -72h-406zM420 498h522l-137 628l2 29h-12l-7 -29zM614 1610q0 43 40 76.5t89 37.5h6h5q47 0 68.5 -30.5t21.5 -83.5q0 -41 -31 -69t-65 -40q-12 -2 -22.5 -4 t-20.5 -2q-39 0 -65 32t-26 83zM1010 1610q0 47 42 80.5t95 33.5t72.5 -35.5t19.5 -78.5q0 -39 -35 -71t-78 -40q-6 -2 -13 -3t-13 -1q-45 0 -67.5 32t-22.5 83z" />
<glyph unicode="&#xb3;" horiz-adv-x="1126" d="M111 330q0 281 157.5 460t354.5 179q90 0 142 -35t77 -76q12 -18 19 -37.5t11 -34.5l41 164l158 23l-170 -694q-2 -8 -6 -27t-8 -41v-5q0 -3 -2 -5q-4 -27 -8.5 -50.5t-4.5 -31.5q0 -4 1 -9.5t4 -9.5q4 -12 14 -23t27 -11q12 0 27.5 6t35.5 18q10 6 17.5 10t13.5 9h2 q4 2 8 5t10 5l31 -56q-57 -41 -101 -62t-83 -21q-63 0 -97 20t-49 47q-6 10 -8 21.5t-2 19.5v7v7v19q0 8 2 14h-10q-20 -45 -74.5 -82t-116.5 -55q-27 -8 -52.5 -13t-47.5 -5q-25 0 -51.5 4t-55.5 12q-78 25 -142 101.5t-64 232.5zM289 330q0 -141 56 -197.5t130 -56.5 q14 0 27.5 2t27.5 4q72 18 137.5 80.5t92.5 171.5l78 313q2 6 3 14.5t1 16.5q0 16 -4 35.5t-13 40.5q-18 51 -63 93t-121 42q-115 0 -199 -113.5t-123 -251.5q-14 -51 -22 -101t-8 -93zM463 1257q0 41 38 71t83 30q39 0 55 -20.5t23 -45.5q0 -10 1 -18t1 -17 q0 -33 -31 -61.5t-68 -36.5q-6 0 -11 -1t-11 -1q-41 0 -60.5 28.5t-19.5 71.5zM823 1257q0 41 28 65t60 32q8 2 16.5 3t16.5 1q45 0 62.5 -31t17.5 -70q0 -33 -24.5 -56t-55.5 -36q-10 -4 -21.5 -6t-21.5 -2q-29 0 -53.5 24.5t-24.5 75.5z" />
<glyph unicode="&#xb4;" horiz-adv-x="444" d="M344 1141l166 293h238l-326 -293h-78z" />
<glyph unicode="&#xb5;" horiz-adv-x="718" />
<glyph unicode="&#xb6;" horiz-adv-x="1052" d="M57 1118q0 109 72 183.5t215 74.5h166v-1949h-137v1433h-29q-150 0 -218.5 79t-68.5 179zM766 -573v1949h137v-1949h-137z" />
<glyph unicode="&#xb7;" horiz-adv-x="718" />
<glyph unicode="&#xb8;" horiz-adv-x="1038" d="M111 266q0 45 4 91t14 94q39 195 165 356.5t359 161.5q180 0 258 -103.5t86 -228.5v-13v-14q0 -16 -1 -32.5t-3 -32.5l-704 -105q-6 -23 -10.5 -52.5t-2.5 -63.5q0 -12 1.5 -24.5t1.5 -27.5q10 -80 59 -148.5t172 -68.5q78 0 151.5 27t147.5 82l29 24l28 25l41 -59 q-59 -55 -129.5 -94.5t-144.5 -59.5q-39 -10 -77 -15t-75 -5q-18 0 -70.5 4t-111.5 22q-70 25 -129 84t-59 176zM305 518l514 78q2 16 3 32.5t1 30.5q-2 119 -46 173.5t-97 66.5q-10 4 -22.5 5t-22.5 1q-111 0 -206 -111.5t-124 -275.5zM422 1257q0 37 35 67t78 34h5h5 q47 0 62.5 -30t15.5 -71q0 -35 -26 -59t-58 -35q-8 -2 -18.5 -4t-18.5 -2q-39 0 -59.5 28.5t-20.5 71.5zM793 1257q0 41 27.5 65t60.5 32q8 2 16 3t16 1q45 0 62.5 -31t17.5 -70q0 -33 -24.5 -56t-55.5 -36q-10 -4 -21 -6t-22 -2q-29 0 -53 24.5t-24 75.5z" />
<glyph unicode="&#xb9;" horiz-adv-x="2164" d="M35 0l14 72h156l260 1226h-156l15 72h344l506 -1034l204 962h-172l15 72h448l-14 -72h-187l-286 -1345l-637 1239l-238 -1120h156l-14 -72h-414zM1376 80l23 108h543l-23 -108h-543zM1470 592q0 27 3.5 52.5t7.5 49.5q27 129 96.5 209t146.5 115q33 14 65 21.5t60 7.5h9 h8q80 -6 145.5 -66.5t65.5 -175.5q0 -168 -79 -274.5t-173 -149.5q-33 -16 -64.5 -23.5t-60.5 -7.5h-5h-7q-80 4 -149 64.5t-69 177.5zM1604 560q0 -3 2 -7v-7v-7q0 -10 2 -25.5t6 -30.5q10 -29 31.5 -52t66.5 -23q90 0 149.5 106.5t73.5 233.5q2 12 3 23t1 24v31v30 q0 10 -2 25.5t-6 31.5q-8 29 -29.5 52.5t-66.5 23.5q-20 0 -47 -10t-55 -37q-33 -31 -63 -90t-50 -158q-2 -12 -4 -23.5t-4 -23.5t-4 -23.5t-2 -23.5q0 -4 -1 -8t-1 -8v-9v-8v-7z" />
<glyph unicode="&#xba;" horiz-adv-x="1110" d="M111 322q0 39 3 76.5t11 74.5q47 219 210 357.5t359 138.5q164 0 254 -85t113 -190q4 -16 6 -34.5t2 -34.5q0 -59 -13.5 -133t-45.5 -150q-25 -57 -63 -111.5t-91 -103.5q-12 -12 -25.5 -22.5t-25.5 -18.5q-88 -66 -173 -86t-151 -20q-164 0 -255 89t-111 195 q-2 14 -3 29t-1 29zM285 330q0 -12 2 -53t18 -87q16 -55 60.5 -100t132.5 -45q164 0 280.5 163t116.5 404q0 133 -54.5 211t-160.5 78q-141 0 -233.5 -118.5t-131.5 -262.5q-4 -12 -7 -23.5t-5 -23.5q-8 -33 -13 -68.5t-5 -70.5v-1v-3zM455 1257q0 41 37.5 71t82.5 30 q37 0 53.5 -19.5t22.5 -42.5q2 -10 3 -20t1 -19v-3v-3q-4 -29 -31.5 -54.5t-60.5 -35.5q-6 -2 -14 -3t-14 -1q-41 0 -60.5 28.5t-19.5 71.5zM815 1257q0 41 27.5 65t60.5 32q8 2 16.5 3t16.5 1q45 0 62.5 -31t17.5 -70q0 -33 -24.5 -56t-55.5 -36q-10 -4 -21.5 -6t-21.5 -2 q-29 0 -53.5 24.5t-24.5 75.5z" />
<glyph unicode="&#xbb;" d="M168 121l295 387l-131 387h139l135 -387l-299 -387h-139zM510 121l297 387l-131 387h139l135 -387l-301 -387h-139z" />
<glyph unicode="&#xbc;" horiz-adv-x="2154" d="M403 465v121h1348v-121h-1348zM977 184q0 57 26.5 91t73.5 34q49 0 75 -35.5t26 -89.5q0 -51 -26 -89t-75 -38q-51 0 -75.5 40t-24.5 87zM977 866q0 51 25.5 89t74.5 38q53 0 77 -40t24 -87q0 -53 -19.5 -80.5t-44.5 -37.5q-10 -4 -19.5 -6.5t-17.5 -2.5q-6 0 -13 1 t-13 3q-29 8 -51.5 37t-22.5 86z" />
<glyph unicode="&#xbd;" horiz-adv-x="1521" d="M242 195l434 434l-434 432l84 86l434 -434l434 434l86 -86l-434 -432l434 -434l-86 -86l-434 434l-434 -434z" />
<glyph unicode="&#xbe;" horiz-adv-x="1429" d="M127 59q0 8 1 14.5t3 14.5q0 4 1 7t1 7q2 8 6 25.5t17 36.5q12 25 37.5 45t66.5 20q4 0 15.5 -1t23.5 -7q14 -6 27.5 -23.5t13.5 -50.5q0 -14 -3 -31.5t-9 -35.5q-12 -37 -41 -68.5t-80 -31.5q-37 0 -54.5 17t-23.5 40q0 6 -1 11t-1 11zM629 59q0 10 1 21.5t3 21.5 q10 53 44 90t85 37q37 0 54.5 -18t23.5 -41q0 -6 1 -11t1 -12q0 -14 -3 -31.5t-10 -35.5q-12 -37 -40.5 -68.5t-79.5 -31.5q-4 0 -15.5 1t-23.5 7q-14 6 -27.5 22t-13.5 49zM1130 51v8q0 10 1.5 21.5t3.5 21.5q10 51 43.5 89t85.5 38q39 0 58 -23.5t19 -58.5v-12 q0 -6 -2 -12q-6 -55 -40.5 -99t-90.5 -44q-37 0 -54 19t-21 44q-3 4 -3 8z" />
<glyph unicode="&#xbf;" horiz-adv-x="1196" d="M174 874l14 72h310l-136 -635q0 -4 -2 -10t-2 -14q-4 -14 -6 -31.5t-2 -38.5v-9q0 -5 2 -11q4 -51 34 -93.5t116 -42.5q106 0 182 74t102 199l115 540h-147l14 72h311l-153 -710q-2 -4 -4 -15.5t-4 -25.5q0 -4 -1.5 -7.5t-1.5 -7.5q-2 -18 -4 -33.5t-2 -21.5 q0 -29 14.5 -42t41.5 -13q10 0 24.5 3t28.5 9q8 2 15 5t16 5q10 6 20 10t14 9l33 -64q-23 -16 -57.5 -31.5t-69.5 -23.5q-27 -8 -51.5 -12.5t-44.5 -4.5q-61 0 -103 31t-40 82v12q0 6 2 13h-13l-20 -31q-6 -6 -13.5 -12.5t-15.5 -12.5q-70 -53 -137.5 -67.5t-124.5 -14.5 q-137 0 -186 62.5t-54 140.5v9v12q0 27 3.5 52t7.5 48q2 6 3 11t1 9l119 555h-148zM457 1257q0 41 37.5 71t83.5 30q39 0 55 -20.5t22 -45.5q0 -10 1 -18t1 -17q0 -33 -30.5 -61.5t-67.5 -36.5q-6 0 -11 -1t-11 -1q-41 0 -60.5 28.5t-19.5 71.5zM817 1257q0 41 27.5 65 t60.5 32q8 2 16.5 3t16.5 1q47 0 62.5 -31t15.5 -70q0 -37 -27.5 -61.5t-60.5 -34.5q-8 -2 -16.5 -3t-16.5 -1q-29 0 -53.5 24.5t-24.5 75.5z" />
<glyph unicode="&#xc0;" horiz-adv-x="1390" d="M-74 0l15 72h133l778 1339h78l297 -1339h133l-14 -72h-494l14 72h170l-82 338h-583l-195 -338h170l-14 -72h-406zM420 498h522l-137 628l2 29h-12l-7 -29z" />
<glyph unicode="&#x410;" horiz-adv-x="1390" d="M-74 0l15 72h133l778 1339h78l297 -1339h133l-14 -72h-494l14 72h170l-82 338h-583l-195 -338h170l-14 -72h-406zM420 498h522l-137 628l2 29h-12l-7 -29z" />
<glyph unicode="&#xc1;" horiz-adv-x="1263" d="M35 0l14 72h156l260 1226h-156l15 72h942l-49 -231h-115l28 123h-491l-104 -490h241q27 0 80 -3t113 -21q80 -23 146.5 -82.5t66.5 -180.5q0 -16 -7.5 -87.5t-52.5 -153.5q-51 -90 -167.5 -167t-344.5 -77h-575zM389 86h240q129 0 206.5 69.5t114.5 151.5q18 43 27.5 83 t9.5 71q0 10 -1 19t-3 18q-10 72 -69.5 130t-168.5 58h-229z" />
<glyph unicode="&#x411;" horiz-adv-x="1263" d="M35 0l14 72h156l260 1226h-156l15 72h942l-49 -231h-115l28 123h-491l-104 -490h241q27 0 80 -3t113 -21q80 -23 146.5 -82.5t66.5 -180.5q0 -16 -7.5 -87.5t-52.5 -153.5q-51 -90 -167.5 -167t-344.5 -77h-575zM389 86h240q129 0 206.5 69.5t114.5 151.5q18 43 27.5 83 t9.5 71q0 10 -1 19t-3 18q-10 72 -69.5 130t-168.5 58h-229z" />
<glyph unicode="&#xc2;" horiz-adv-x="1269" d="M35 0l14 72h156l260 1226h-156l15 72h606q162 0 234.5 -87t72.5 -202q0 -10 -1 -21t-3 -22q-18 -100 -116.5 -187t-246.5 -106h-20l-2 -12l18 -2q8 0 17.5 -1t19.5 -1q98 -12 181 -75.5t83 -182.5q0 -37 -7 -79t-23 -83q-45 -117 -163 -213t-333 -96h-606zM391 86h240 q133 0 219 90t113 197q4 23 7 45t3 43q0 111 -79 168t-200 57h-174zM537 772h196q127 0 214 92t100 203q2 8 2 16v17q0 76 -48.5 130t-156.5 54h-199z" />
<glyph unicode="&#x412;" horiz-adv-x="1269" d="M35 0l14 72h156l260 1226h-156l15 72h606q162 0 234.5 -87t72.5 -202q0 -10 -1 -21t-3 -22q-18 -100 -116.5 -187t-246.5 -106h-20l-2 -12l18 -2q8 0 17.5 -1t19.5 -1q98 -12 181 -75.5t83 -182.5q0 -37 -7 -79t-23 -83q-45 -117 -163 -213t-333 -96h-606zM391 86h240 q133 0 219 90t113 197q4 23 7 45t3 43q0 111 -79 168t-200 57h-174zM537 772h196q127 0 214 92t100 203q2 8 2 16v17q0 76 -48.5 130t-156.5 54h-199z" />
<glyph unicode="&#xc3;" horiz-adv-x="1089" d="M35 0l14 72h156l260 1226h-156l15 72h948l-62 -285h-120l38 177h-489l-252 -1190h182l-14 -72h-520z" />
<glyph unicode="&#x413;" horiz-adv-x="1089" d="M35 0l14 72h156l260 1226h-156l15 72h948l-62 -285h-120l38 177h-489l-252 -1190h182l-14 -72h-520z" />
<glyph unicode="&#xc4;" horiz-adv-x="1398" d="M-129 -389l98 461h170l684 1226h-159l14 72h336l155 -1298h170l-98 -461h-170l84 389h-1030l-84 -389h-170zM244 92h753l-139 1071l2 23h-12l-6 -23z" />
<glyph unicode="&#x414;" horiz-adv-x="1398" d="M-129 -389l98 461h170l684 1226h-159l14 72h336l155 -1298h170l-98 -461h-170l84 389h-1030l-84 -389h-170zM244 92h753l-139 1071l2 23h-12l-6 -23z" />
<glyph unicode="&#xc5;" horiz-adv-x="1257" d="M35 0l14 72h156l262 1226h-156l15 72h989l-53 -244h-111l31 136h-541l-106 -490h448l35 162h110l-84 -393h-110l31 145h-447l-123 -577h572l41 186h110l-63 -295h-1020z" />
<glyph unicode="&#x415;" horiz-adv-x="1257" d="M35 0l14 72h156l262 1226h-156l15 72h989l-53 -244h-111l31 136h-541l-106 -490h448l35 162h110l-84 -393h-110l31 145h-447l-123 -577h572l41 186h110l-63 -295h-1020z" />
<glyph unicode="&#xc6;" horiz-adv-x="2273" d="M6 2l33 70h6h6q2 -2 5 -2h5q70 0 118 41t89 90q8 8 15.5 16t13.5 19l4 4l4 4l545 616l-293 438h-160l15 72h419l-14 -72h-160l467 -667l142 667h-150l14 72h474l-15 -72h-149l-142 -665l752 665h-158l15 72h417l-14 -72h-158l-495 -452l276 -602q6 -14 14 -29l13 -27 q27 -53 58.5 -84.5t86.5 -31.5h60l-15 -70q-25 -10 -51 -15t-53 -7q-20 -2 -42 -3h-40h-11h-11q-47 0 -88.5 29t-57.5 66l-280 647l-246 -223l-90 -424h149l-14 -72h-473l14 72h150l90 424l-150 223l-557 -647q-16 -18 -34.5 -32.5t-37.5 -25.5q-37 -18 -69.5 -27.5 t-44.5 -9.5q-68 0 -115 4.5t-82 20.5z" />
<glyph unicode="&#x416;" horiz-adv-x="2273" d="M6 2l33 70h6h6q2 -2 5 -2h5q70 0 118 41t89 90q8 8 15.5 16t13.5 19l4 4l4 4l545 616l-293 438h-160l15 72h419l-14 -72h-160l467 -667l142 667h-150l14 72h474l-15 -72h-149l-142 -665l752 665h-158l15 72h417l-14 -72h-158l-495 -452l276 -602q6 -14 14 -29l13 -27 q27 -53 58.5 -84.5t86.5 -31.5h60l-15 -70q-25 -10 -51 -15t-53 -7q-20 -2 -42 -3h-40h-11h-11q-47 0 -88.5 29t-57.5 66l-280 647l-246 -223l-90 -424h149l-14 -72h-473l14 72h150l90 424l-150 223l-557 -647q-16 -18 -34.5 -32.5t-37.5 -25.5q-37 -18 -69.5 -27.5 t-44.5 -9.5q-68 0 -115 4.5t-82 20.5z" />
<glyph unicode="&#xc7;" horiz-adv-x="1243" d="M63 0l76 362h105q-2 -10 -2 -22v-25q0 -14 1 -27.5t3 -27.5q12 -78 77.5 -141.5t231.5 -63.5q156 0 273.5 105.5t117.5 288.5q0 117 -79 184t-216 67h-135l19 86h135q29 0 70.5 7.5t84.5 25.5q74 29 136.5 98.5t62.5 198.5q0 86 -58.5 139.5t-152.5 53.5 q-131 0 -236.5 -65.5t-142.5 -180.5h-106l65 307h107l-15 -72l-10 -22h10l13 16q70 49 156.5 76t176.5 27q18 0 38 -1t38 -3q113 -12 206 -71.5t93 -203.5q0 -141 -83 -230t-195 -124l-49 -8l-5 -13l50 -6q88 -23 152.5 -91.5t64.5 -176.5q0 -35 -7.5 -74t-23.5 -78 q-49 -129 -187.5 -236.5t-373.5 -107.5q-35 0 -74 2t-78 9q-51 10 -101 33.5t-93 70.5l-8 23h-13l2 -33l-16 -76h-105z" />
<glyph unicode="&#x417;" horiz-adv-x="1243" d="M63 0l76 362h105q-2 -10 -2 -22v-25q0 -14 1 -27.5t3 -27.5q12 -78 77.5 -141.5t231.5 -63.5q156 0 273.5 105.5t117.5 288.5q0 117 -79 184t-216 67h-135l19 86h135q29 0 70.5 7.5t84.5 25.5q74 29 136.5 98.5t62.5 198.5q0 86 -58.5 139.5t-152.5 53.5 q-131 0 -236.5 -65.5t-142.5 -180.5h-106l65 307h107l-15 -72l-10 -22h10l13 16q70 49 156.5 76t176.5 27q18 0 38 -1t38 -3q113 -12 206 -71.5t93 -203.5q0 -141 -83 -230t-195 -124l-49 -8l-5 -13l50 -6q88 -23 152.5 -91.5t64.5 -176.5q0 -35 -7.5 -74t-23.5 -78 q-49 -129 -187.5 -236.5t-373.5 -107.5q-35 0 -74 2t-78 9q-51 10 -101 33.5t-93 70.5l-8 23h-13l2 -33l-16 -76h-105z" />
<glyph unicode="&#xc8;" horiz-adv-x="1589" d="M35 0l14 72h156l262 1226h-156l15 72h493l-14 -72h-156l-211 -985l912 873l24 112h-155l14 72h493l-14 -72h-156l-262 -1226h156l-14 -72h-494l14 72h156l209 977l-913 -881l-21 -96h156l-15 -72h-493z" />
<glyph unicode="&#x418;" horiz-adv-x="1589" d="M35 0l14 72h156l262 1226h-156l15 72h493l-14 -72h-156l-211 -985l912 873l24 112h-155l14 72h493l-14 -72h-156l-262 -1226h156l-14 -72h-494l14 72h156l209 977l-913 -881l-21 -96h156l-15 -72h-493z" />
<glyph unicode="&#xc9;" horiz-adv-x="1587" d="M35 0l14 72h156l260 1226h-156l15 72h493l-16 -72h-154l-209 -985l912 873l22 112h-155l16 72h491l-14 -72h-156l-260 -1226h156l-16 -72h-494l16 72h156l207 977l-911 -881l-21 -96h156l-15 -72h-493zM745 1642q0 20 1.5 37t3.5 31h204q-4 -18 -5 -32.5t-1 -24.5v-13 q0 -6 2 -10v-6v-4q0 -35 31 -46t70 -13h14h14q88 0 130 32.5t57 71.5q4 10 6 22.5t4 22.5h158q-39 -145 -142.5 -180t-220.5 -37h-12h-12h-4h-3h-22h-23q-94 2 -172 25.5t-78 123.5z" />
<glyph unicode="&#x419;" horiz-adv-x="1587" d="M35 0l14 72h156l260 1226h-156l15 72h493l-16 -72h-154l-209 -985l912 873l22 112h-155l16 72h491l-14 -72h-156l-260 -1226h156l-16 -72h-494l16 72h156l207 977l-911 -881l-21 -96h156l-15 -72h-493zM745 1642q0 20 1.5 37t3.5 31h204q-4 -18 -5 -32.5t-1 -24.5v-13 q0 -6 2 -10v-6v-4q0 -35 31 -46t70 -13h14h14q88 0 130 32.5t57 71.5q4 10 6 22.5t4 22.5h158q-39 -145 -142.5 -180t-220.5 -37h-12h-12h-4h-3h-22h-23q-94 2 -172 25.5t-78 123.5z" />
<glyph unicode="&#xca;" horiz-adv-x="1466" d="M35 0l14 72h156l260 1226h-156l15 72h493l-16 -72h-144l-141 -667l731 667h-164l17 72h418l-15 -72h-157l-492 -460l272 -594q18 -39 33 -66.5t29 -48.5q23 -31 47.5 -44t62.5 -13h60l-15 -70q-12 -2 -24 -6t-25 -6q-20 -6 -40.5 -8t-43.5 -2q-115 0 -164 37.5t-73 95.5 l-260 594l-226 -207l-90 -428h144l-17 -72h-489z" />
<glyph unicode="&#x41a;" horiz-adv-x="1466" d="M35 0l14 72h156l260 1226h-156l15 72h493l-16 -72h-144l-141 -667l731 667h-164l17 72h418l-15 -72h-157l-492 -460l272 -594q18 -39 33 -66.5t29 -48.5q23 -31 47.5 -44t62.5 -13h60l-15 -70q-12 -2 -24 -6t-25 -6q-20 -6 -40.5 -8t-43.5 -2q-115 0 -164 37.5t-73 95.5 l-260 594l-226 -207l-90 -428h144l-17 -72h-489z" />
<glyph unicode="&#xcb;" horiz-adv-x="1423" d="M-43 2l98 186q14 -10 29.5 -16t32.5 -8q12 -2 25.5 -3t25.5 -1q35 0 63.5 34.5t51.5 77.5q8 16 16 34t16 32l525 960h-156l14 72h338l187 -1298h141l-14 -72h-498l14 72h174l-157 1104l2 22h-11l-6 -22l-546 -994q-35 -63 -64 -103t-55 -63q-27 -20 -55.5 -28t-63.5 -8 q-37 0 -67.5 7t-59.5 15z" />
<glyph unicode="&#x41b;" horiz-adv-x="1423" d="M-43 2l98 186q14 -10 29.5 -16t32.5 -8q12 -2 25.5 -3t25.5 -1q35 0 63.5 34.5t51.5 77.5q8 16 16 34t16 32l525 960h-156l14 72h338l187 -1298h141l-14 -72h-498l14 72h174l-157 1104l2 22h-11l-6 -22l-546 -994q-35 -63 -64 -103t-55 -63q-27 -20 -55.5 -28t-63.5 -8 q-37 0 -67.5 7t-59.5 15z" />
<glyph unicode="&#xcc;" horiz-adv-x="1951" d="M35 0l14 72h156l375 1228h-154l14 70h336l254 -866v-19h12l5 19l600 866h333l-14 -70h-154l-118 -1228h155l-14 -72h-494l15 72h155l86 1073l9 22h-13l-10 -24l-635 -899h-20l-269 899l-8 35h-12l-10 -35l-328 -1071h156l-17 -72h-405z" />
<glyph unicode="&#x41c;" horiz-adv-x="1951" d="M35 0l14 72h156l375 1228h-154l14 70h336l254 -866v-19h12l5 19l600 866h333l-14 -70h-154l-118 -1228h155l-14 -72h-494l15 72h155l86 1073l9 22h-13l-10 -24l-635 -899h-20l-269 899l-8 35h-12l-10 -35l-328 -1071h156l-17 -72h-405z" />
<glyph unicode="&#xcd;" horiz-adv-x="1628" d="M35 0l14 72h156l260 1226h-156l15 72h493l-14 -72h-156l-112 -528h765l113 528h-156l15 72h493l-14 -72h-156l-260 -1226h156l-14 -72h-494l14 72h156l129 612h-766l-129 -612h156l-15 -72h-493z" />
<glyph unicode="&#x41d;" horiz-adv-x="1628" d="M35 0l14 72h156l260 1226h-156l15 72h493l-14 -72h-156l-112 -528h765l113 528h-156l15 72h493l-14 -72h-156l-260 -1226h156l-14 -72h-494l14 72h156l129 612h-766l-129 -612h156l-15 -72h-493z" />
<glyph unicode="&#xce;" horiz-adv-x="1603" d="M172 453v20v19q0 51 1 99t11 95q0 4 1 9t3 10q61 258 285.5 473t560.5 215h22q11 0 23 -2q197 -10 361 -125t164 -348q0 -373 -259.5 -655.5t-611.5 -282.5q-248 0 -404.5 134t-156.5 339zM367 506q0 -14 1 -29.5t1 -30.5q16 -143 106 -263t277 -120q264 0 448 230.5 t207 507.5q0 16 1 32.5t1 32.5q0 193 -107.5 317t-285.5 124q-29 0 -56.5 -3.5t-56.5 -11.5q-166 -39 -313.5 -193.5t-202.5 -412.5q-8 -45 -14 -89t-6 -91z" />
<glyph unicode="&#x41e;" horiz-adv-x="1603" d="M172 453v20v19q0 51 1 99t11 95q0 4 1 9t3 10q61 258 285.5 473t560.5 215h22q11 0 23 -2q197 -10 361 -125t164 -348q0 -373 -259.5 -655.5t-611.5 -282.5q-248 0 -404.5 134t-156.5 339zM367 506q0 -14 1 -29.5t1 -30.5q16 -143 106 -263t277 -120q264 0 448 230.5 t207 507.5q0 16 1 32.5t1 32.5q0 193 -107.5 317t-285.5 124q-29 0 -56.5 -3.5t-56.5 -11.5q-166 -39 -313.5 -193.5t-202.5 -412.5q-8 -45 -14 -89t-6 -91z" />
<glyph unicode="&#xcf;" horiz-adv-x="1597" d="M35 0l14 72h156l260 1226h-156l15 72h1411l-15 -72h-155l-260 -1226h155l-14 -72h-494l15 72h155l254 1190h-735l-254 -1190h156l-15 -72h-493z" />
<glyph unicode="&#x41f;" horiz-adv-x="1597" d="M35 0l14 72h156l260 1226h-156l15 72h1411l-15 -72h-155l-260 -1226h155l-14 -72h-494l15 72h155l254 1190h-735l-254 -1190h156l-15 -72h-493z" />
<glyph unicode="&#xd0;" horiz-adv-x="1191" d="M35 0l14 72h156l260 1228h-156l15 70h585q193 0 263.5 -101.5t76.5 -224.5q2 -8 2 -17v-19q0 -190 -166.5 -328.5t-412.5 -138.5q-49 0 -90 7t-72 15q-4 0 -8 1t-8 3l-107 -495h170l-14 -72h-508zM510 649q35 -12 77 -17t95 -5q133 0 218 69.5t124 155.5q16 35 24.5 69.5 t8.5 63.5q0 127 -56.5 213t-177.5 86h-180z" />
<glyph unicode="&#x420;" horiz-adv-x="1191" d="M35 0l14 72h156l260 1228h-156l15 70h585q193 0 263.5 -101.5t76.5 -224.5q2 -8 2 -17v-19q0 -190 -166.5 -328.5t-412.5 -138.5q-49 0 -90 7t-72 15q-4 0 -8 1t-8 3l-107 -495h170l-14 -72h-508zM510 649q35 -12 77 -17t95 -5q133 0 218 69.5t124 155.5q16 35 24.5 69.5 t8.5 63.5q0 127 -56.5 213t-177.5 86h-180z" />
<glyph unicode="&#xd1;" horiz-adv-x="1472" d="M156 522q2 41 5 80t11 78q59 315 310 514t567 199q31 0 66.5 -4.5t70.5 -14.5q49 -12 96 -37.5t82 -64.5l10 -27h12v33l19 92h119l-82 -379h-119q2 4 3 12.5t1 18.5q2 10 4 23.5t2 27.5q2 10 2 21v18v8q0 4 -2 8q-10 68 -99 123.5t-204 55.5q-262 0 -406.5 -172 t-203.5 -379q-29 -96 -41 -189.5t-12 -169.5q0 -27 10 -63.5t31 -73.5q43 -74 132 -134t234 -60q102 0 230.5 35.5t271.5 154.5l49 -55q-100 -98 -230 -151.5t-268 -63.5q-18 -2 -36.5 -3t-36.5 -1q-270 0 -407.5 113.5t-174.5 281.5q-4 18 -7 36.5t-5 37.5q-2 16 -3 34.5 t-1 36.5z" />
<glyph unicode="&#x421;" horiz-adv-x="1472" d="M156 522q2 41 5 80t11 78q59 315 310 514t567 199q31 0 66.5 -4.5t70.5 -14.5q49 -12 96 -37.5t82 -64.5l10 -27h12v33l19 92h119l-82 -379h-119q2 4 3 12.5t1 18.5q2 10 4 23.5t2 27.5q2 10 2 21v18v8q0 4 -2 8q-10 68 -99 123.5t-204 55.5q-262 0 -406.5 -172 t-203.5 -379q-29 -96 -41 -189.5t-12 -169.5q0 -27 10 -63.5t31 -73.5q43 -74 132 -134t234 -60q102 0 230.5 35.5t271.5 154.5l49 -55q-100 -98 -230 -151.5t-268 -63.5q-18 -2 -36.5 -3t-36.5 -1q-270 0 -407.5 113.5t-174.5 281.5q-4 18 -7 36.5t-5 37.5q-2 16 -3 34.5 t-1 36.5z" />
<glyph unicode="&#xd2;" horiz-adv-x="1204" d="M229 1106l56 264h1095l-57 -264h-113l35 156h-340l-254 -1190h156l-14 -72h-500l14 72h156l254 1190h-340l-35 -156h-113z" />
<glyph unicode="&#x422;" horiz-adv-x="1204" d="M229 1106l56 264h1095l-57 -264h-113l35 156h-340l-254 -1190h156l-14 -72h-500l14 72h156l254 1190h-340l-35 -156h-113z" />
<glyph unicode="&#xd3;" horiz-adv-x="1306" d="M199 1298l14 72h516l-14 -72h-176l270 -700l6 -31h12l11 31l426 700h-179l15 72h418l-15 -72h-143l-694 -1144q-63 -106 -130 -140t-133 -34q-63 0 -101 19t-62 44l116 195q2 -6 5.5 -12.5t7.5 -12.5q18 -31 46.5 -56.5t63.5 -25.5q41 0 70 21.5t49 48.5q4 8 9 15t9 13 l82 138l-358 931h-141z" />
<glyph unicode="&#x423;" horiz-adv-x="1306" d="M199 1298l14 72h516l-14 -72h-176l270 -700l6 -31h12l11 31l426 700h-179l15 72h418l-15 -72h-143l-694 -1144q-63 -106 -130 -140t-133 -34q-63 0 -101 19t-62 44l116 195q2 -6 5.5 -12.5t7.5 -12.5q18 -31 46.5 -56.5t63.5 -25.5q41 0 70 21.5t49 48.5q4 8 9 15t9 13 l82 138l-358 931h-141z" />
<glyph unicode="&#xd4;" horiz-adv-x="1878" d="M172 692q0 205 145.5 330t321.5 184q96 33 187.5 48.5t158.5 15.5h70l20 98h-155l14 72h493l-14 -72h-156l-20 -98h68q324 0 442.5 -164t128.5 -361q2 -12 2 -25v-28v-11v-11q-16 -203 -261 -370t-622 -165l-24 -115h155l-14 -71h-494l15 71h155l25 115h-8h-8h-9h-8 q-307 0 -437 131t-159 289q-6 35 -9 69.5t-3 67.5zM367 696q0 -244 135 -360.5t329 -114.5l205 963h-9h-9h-5h-7q-240 -4 -439.5 -145.5t-199.5 -342.5zM1014 221q258 0 463.5 137.5t205.5 337.5q0 250 -130 369t-316 119h-9h-9z" />
<glyph unicode="&#x424;" horiz-adv-x="1878" d="M172 692q0 205 145.5 330t321.5 184q96 33 187.5 48.5t158.5 15.5h70l20 98h-155l14 72h493l-14 -72h-156l-20 -98h68q324 0 442.5 -164t128.5 -361q2 -12 2 -25v-28v-11v-11q-16 -203 -261 -370t-622 -165l-24 -115h155l-14 -71h-494l15 71h155l25 115h-8h-8h-9h-8 q-307 0 -437 131t-159 289q-6 35 -9 69.5t-3 67.5zM367 696q0 -244 135 -360.5t329 -114.5l205 963h-9h-9h-5h-7q-240 -4 -439.5 -145.5t-199.5 -342.5zM1014 221q258 0 463.5 137.5t205.5 337.5q0 250 -130 369t-316 119h-9h-9z" />
<glyph unicode="&#xd5;" horiz-adv-x="1492" d="M6 0l14 72h150l555 620l-303 606h-141l14 72h524l-14 -72h-180l229 -462h12l8 16l416 446h-172l15 72h430l-15 -72h-141l-498 -532l340 -694h133l-14 -72h-526l14 72h180l-250 530l-6 14h-12l-10 -14l-475 -530h172l-15 -72h-434z" />
<glyph unicode="&#x425;" horiz-adv-x="1492" d="M6 0l14 72h150l555 620l-303 606h-141l14 72h524l-14 -72h-180l229 -462h12l8 16l416 446h-172l15 72h430l-15 -72h-141l-498 -532l340 -694h133l-14 -72h-526l14 72h180l-250 530l-6 14h-12l-10 -14l-475 -530h172l-15 -72h-434z" />
<glyph unicode="&#xd6;" horiz-adv-x="1599" d="M35 0l14 72h156l260 1226h-156l15 72h493l-14 -72h-156l-252 -1189h735l252 1189h-155l14 72h494l-15 -72h-155l-260 -1226h153l-98 -461h-172l82 389h-1235z" />
<glyph unicode="&#x426;" horiz-adv-x="1599" d="M35 0l14 72h156l260 1226h-156l15 72h493l-14 -72h-156l-252 -1189h735l252 1189h-155l14 72h494l-15 -72h-155l-260 -1226h153l-98 -461h-172l82 389h-1235z" />
<glyph unicode="&#xd7;" horiz-adv-x="1329" d="M143 1298l15 72h493l-14 -72h-156l-92 -430q-4 -20 -8 -43.5t-4 -46.5q0 -57 53 -100t227 -43q29 0 71 3t85 7q23 2 44.5 5t39.5 5q25 4 46 8l36 5l135 630h-156l15 72h493l-14 -72h-156l-262 -1226h156l-14 -72h-508l14 72h170l109 508q-18 -2 -41 -5.5t-50 -5.5 q-25 -2 -53.5 -5t-58.5 -5q-53 -4 -105.5 -7t-89.5 -3h-41q-20 0 -41 2q-109 4 -198.5 38t-89.5 136q0 14 2 38.5t6 53.5q2 10 3 21.5t3 21.5q2 16 4 28.5t4 20.5l84 389h-156z" />
<glyph unicode="&#x427;" horiz-adv-x="1329" d="M143 1298l15 72h493l-14 -72h-156l-92 -430q-4 -20 -8 -43.5t-4 -46.5q0 -57 53 -100t227 -43q29 0 71 3t85 7q23 2 44.5 5t39.5 5q25 4 46 8l36 5l135 630h-156l15 72h493l-14 -72h-156l-262 -1226h156l-14 -72h-508l14 72h170l109 508q-18 -2 -41 -5.5t-50 -5.5 q-25 -2 -53.5 -5t-58.5 -5q-53 -4 -105.5 -7t-89.5 -3h-41q-20 0 -41 2q-109 4 -198.5 38t-89.5 136q0 14 2 38.5t6 53.5q2 10 3 21.5t3 21.5q2 16 4 28.5t4 20.5l84 389h-156z" />
<glyph unicode="&#xd8;" horiz-adv-x="2131" d="M35 0l14 72h154l260 1226h-156l15 72h493l-14 -72h-156l-252 -1189h545l252 1189h-156l15 72h493l-14 -72h-156l-252 -1189h545l252 1189h-156l15 72h493l-14 -72h-156l-260 -1226h152l-15 -72h-1941z" />
<glyph unicode="&#x428;" horiz-adv-x="2131" d="M35 0l14 72h154l260 1226h-156l15 72h493l-14 -72h-156l-252 -1189h545l252 1189h-156l15 72h493l-14 -72h-156l-252 -1189h545l252 1189h-156l15 72h493l-14 -72h-156l-260 -1226h152l-15 -72h-1941z" />
<glyph unicode="&#xd9;" horiz-adv-x="2142" d="M35 0l14 72h156l260 1226h-156l15 72h493l-14 -72h-156l-252 -1189h545l252 1189h-156l15 72h493l-14 -72h-156l-252 -1189h545l252 1189h-156l15 72h493l-14 -72h-156l-260 -1226h162l-100 -467h-172l84 395h-1780z" />
<glyph unicode="&#x429;" horiz-adv-x="2142" d="M35 0l14 72h156l260 1226h-156l15 72h493l-14 -72h-156l-252 -1189h545l252 1189h-156l15 72h493l-14 -72h-156l-252 -1189h545l252 1189h-156l15 72h493l-14 -72h-156l-260 -1226h162l-100 -467h-172l84 395h-1780z" />
<glyph unicode="&#xda;" horiz-adv-x="1447" d="M231 1114l54 256h755l-14 -72h-174l-111 -528h267q20 0 72.5 -4t109.5 -27q72 -29 132 -101.5t60 -217.5q0 -27 -5 -55.5t-15 -57.5q-43 -115 -174 -211t-352 -96h-592l14 72h160l250 1190h-299l-31 -148h-107zM596 86h248q129 0 235.5 94t106.5 221q0 121 -57.5 202 t-184.5 81h-221z" />
<glyph unicode="&#x42a;" horiz-adv-x="1447" d="M231 1114l54 256h755l-14 -72h-174l-111 -528h267q20 0 72.5 -4t109.5 -27q72 -29 132 -101.5t60 -217.5q0 -27 -5 -55.5t-15 -57.5q-43 -115 -174 -211t-352 -96h-592l14 72h160l250 1190h-299l-31 -148h-107zM596 86h248q129 0 235.5 94t106.5 221q0 121 -57.5 202 t-184.5 81h-221z" />
<glyph unicode="&#xdb;" horiz-adv-x="1804" d="M35 0l14 72h156l262 1226h-156l15 72h493l-14 -72h-156l-112 -526h245q23 0 70 -4t100 -25q70 -29 127.5 -101.5t57.5 -219.5q0 -199 -160 -310.5t-367 -111.5h-575zM391 86h227h6h7q125 4 228.5 97t103.5 218q0 123 -58.5 204t-183.5 81h-203zM1157 0l14 72h156 l262 1226h-155l14 72h494l-15 -72h-155l-263 -1226h156l-14 -72h-494z" />
<glyph unicode="&#x42b;" horiz-adv-x="1804" d="M35 0l14 72h156l262 1226h-156l15 72h493l-14 -72h-156l-112 -526h245q23 0 70 -4t100 -25q70 -29 127.5 -101.5t57.5 -219.5q0 -199 -160 -310.5t-367 -111.5h-575zM391 86h227h6h7q125 4 228.5 97t103.5 218q0 123 -58.5 204t-183.5 81h-203zM1157 0l14 72h156 l262 1226h-155l14 72h494l-15 -72h-155l-263 -1226h156l-14 -72h-494z" />
<glyph unicode="&#xdc;" horiz-adv-x="1239" d="M35 0l14 72h156l262 1226h-156l15 72h493l-14 -72h-156l-110 -526h262q203 0 288 -95t85 -255q0 -162 -146.5 -292t-398.5 -130h-594zM391 86h246q131 0 236.5 94t105.5 221q0 123 -58.5 204t-183.5 81h-217z" />
<glyph unicode="&#x42c;" horiz-adv-x="1239" d="M35 0l14 72h156l262 1226h-156l15 72h493l-14 -72h-156l-110 -526h262q203 0 288 -95t85 -255q0 -162 -146.5 -292t-398.5 -130h-594zM391 86h246q131 0 236.5 94t105.5 221q0 123 -58.5 204t-183.5 81h-217z" />
<glyph unicode="&#xdd;" horiz-adv-x="1478" d="M121 244l125 108q8 -23 18 -46t25 -48q45 -74 127 -134.5t219 -60.5q219 0 391 170t225 426h-600l19 86h600q8 35 11 70t3 70v5v7q-2 154 -83 282t-259 128q-39 0 -80 -6.5t-84 -18.5q-111 -31 -209 -105.5t-133 -191.5h-104l76 356h104l-18 -92l-9 -26h11l22 22 q47 41 103.5 68.5t113.5 44.5q66 20 129.5 27.5t114.5 7.5q252 0 368.5 -150.5t129.5 -331.5q2 -12 2 -24v-25q0 -63 -12.5 -133t-34.5 -139q-78 -229 -281 -419.5t-524 -190.5h-28q-13 0 -26 2q-139 8 -266 69.5t-186 192.5z" />
<glyph unicode="&#x42d;" horiz-adv-x="1478" d="M121 244l125 108q8 -23 18 -46t25 -48q45 -74 127 -134.5t219 -60.5q219 0 391 170t225 426h-600l19 86h600q8 35 11 70t3 70v5v7q-2 154 -83 282t-259 128q-39 0 -80 -6.5t-84 -18.5q-111 -31 -209 -105.5t-133 -191.5h-104l76 356h104l-18 -92l-9 -26h11l22 22 q47 41 103.5 68.5t113.5 44.5q66 20 129.5 27.5t114.5 7.5q252 0 368.5 -150.5t129.5 -331.5q2 -12 2 -24v-25q0 -63 -12.5 -133t-34.5 -139q-78 -229 -281 -419.5t-524 -190.5h-28q-13 0 -26 2q-139 8 -266 69.5t-186 192.5z" />
<glyph unicode="&#xde;" horiz-adv-x="2213" d="M35 0l14 72h156l262 1226h-156l15 72h493l-14 -72h-156l-112 -526h301q90 276 324.5 448.5t498.5 172.5h5h7q203 -4 372 -118t169 -357q0 -371 -255 -654.5t-599 -283.5q-31 0 -63.5 3t-65.5 7q-162 27 -296 136.5t-134 336.5v15v26q0 31 3 78t15 104h-301l-131 -614h156 l-15 -72h-493zM995 506q0 -211 107.5 -319.5t238.5 -120.5q8 -2 18 -3h19q35 0 73 6.5t75 20.5q184 63 338.5 269t154.5 507q0 195 -95 301.5t-210 130.5q-18 4 -35.5 6.5t-36.5 2.5q-37 0 -75.5 -7.5t-77.5 -19.5q-154 -53 -289 -204.5t-184 -389.5q-8 -45 -14.5 -89 t-6.5 -91z" />
<glyph unicode="&#x42e;" horiz-adv-x="2213" d="M35 0l14 72h156l262 1226h-156l15 72h493l-14 -72h-156l-112 -526h301q90 276 324.5 448.5t498.5 172.5h5h7q203 -4 372 -118t169 -357q0 -371 -255 -654.5t-599 -283.5q-31 0 -63.5 3t-65.5 7q-162 27 -296 136.5t-134 336.5v15v26q0 31 3 78t15 104h-301l-131 -614h156 l-15 -72h-493zM995 506q0 -211 107.5 -319.5t238.5 -120.5q8 -2 18 -3h19q35 0 73 6.5t75 20.5q184 63 338.5 269t154.5 507q0 195 -95 301.5t-210 130.5q-18 4 -35.5 6.5t-36.5 2.5q-37 0 -75.5 -7.5t-77.5 -19.5q-154 -53 -289 -204.5t-184 -389.5q-8 -45 -14.5 -89 t-6.5 -91z" />
<glyph unicode="&#xdf;" horiz-adv-x="1286" d="M-43 2l12 72q4 0 8.5 -1t6.5 -1h7h7q41 0 92 36.5t127 131.5l215 272q4 6 8 11t9 12q25 29 55.5 55t97.5 43l37 6l2 12l-31 2q-131 10 -193.5 108.5t-62.5 242.5q0 23 5.5 47t13.5 49q39 102 156.5 186t314.5 84h579l-14 -72h-156l-262 -1226h156l-14 -72h-494l14 72h156 l115 540h-146q-18 0 -32.5 -3t-26.5 -9q-27 -18 -64 -67.5t-125 -157.5l-155 -191q-100 -123 -178 -167t-138 -42q-31 0 -56.5 8.5t-45.5 18.5zM537 973q0 -102 45 -188.5t176 -86.5h184l125 586h-215q-119 0 -210 -87t-103 -191q-2 -6 -2 -14v-13v-3v-3z" />
<glyph unicode="&#x42f;" horiz-adv-x="1286" d="M-43 2l12 72q4 0 8.5 -1t6.5 -1h7h7q41 0 92 36.5t127 131.5l215 272q4 6 8 11t9 12q25 29 55.5 55t97.5 43l37 6l2 12l-31 2q-131 10 -193.5 108.5t-62.5 242.5q0 23 5.5 47t13.5 49q39 102 156.5 186t314.5 84h579l-14 -72h-156l-262 -1226h156l-14 -72h-494l14 72h156 l115 540h-146q-18 0 -32.5 -3t-26.5 -9q-27 -18 -64 -67.5t-125 -157.5l-155 -191q-100 -123 -178 -167t-138 -42q-31 0 -56.5 8.5t-45.5 18.5zM537 973q0 -102 45 -188.5t176 -86.5h184l125 586h-215q-119 0 -210 -87t-103 -191q-2 -6 -2 -14v-13v-3v-3z" />
<glyph unicode="&#xe0;" horiz-adv-x="1126" d="M111 330q0 281 157.5 460t354.5 179q90 0 142 -35t77 -76q12 -18 19 -37.5t11 -34.5l41 164l158 23l-170 -694q-2 -8 -6 -27t-8 -41v-5q0 -3 -2 -5q-4 -27 -8.5 -50.5t-4.5 -31.5q0 -4 1 -9.5t4 -9.5q4 -12 14 -23t27 -11q12 0 27.5 6t35.5 18q10 6 17.5 10t13.5 9h2 q4 2 8 5t10 5l31 -56q-57 -41 -101 -62t-83 -21q-63 0 -97 20t-49 47q-6 10 -8 21.5t-2 19.5v7v7v19q0 8 2 14h-10q-20 -45 -74.5 -82t-116.5 -55q-27 -8 -52.5 -13t-47.5 -5q-25 0 -51.5 4t-55.5 12q-78 25 -142 101.5t-64 232.5zM289 330q0 -141 56 -197.5t130 -56.5 q14 0 27.5 2t27.5 4q72 18 137.5 80.5t92.5 171.5l78 313q2 6 3 14.5t1 16.5q0 16 -4 35.5t-13 40.5q-18 51 -63 93t-121 42q-115 0 -199 -113.5t-123 -251.5q-14 -51 -22 -101t-8 -93z" />
<glyph unicode="&#x430;" horiz-adv-x="1126" d="M111 330q0 281 157.5 460t354.5 179q90 0 142 -35t77 -76q12 -18 19 -37.5t11 -34.5l41 164l158 23l-170 -694q-2 -8 -6 -27t-8 -41v-5q0 -3 -2 -5q-4 -27 -8.5 -50.5t-4.5 -31.5q0 -4 1 -9.5t4 -9.5q4 -12 14 -23t27 -11q12 0 27.5 6t35.5 18q10 6 17.5 10t13.5 9h2 q4 2 8 5t10 5l31 -56q-57 -41 -101 -62t-83 -21q-63 0 -97 20t-49 47q-6 10 -8 21.5t-2 19.5v7v7v19q0 8 2 14h-10q-20 -45 -74.5 -82t-116.5 -55q-27 -8 -52.5 -13t-47.5 -5q-25 0 -51.5 4t-55.5 12q-78 25 -142 101.5t-64 232.5zM289 330q0 -141 56 -197.5t130 -56.5 q14 0 27.5 2t27.5 4q72 18 137.5 80.5t92.5 171.5l78 313q2 6 3 14.5t1 16.5q0 16 -4 35.5t-13 40.5q-18 51 -63 93t-121 42q-115 0 -199 -113.5t-123 -251.5q-14 -51 -22 -101t-8 -93z" />
<glyph unicode="&#xe1;" horiz-adv-x="1124" d="M129 281q0 78 11.5 209t54.5 270q63 213 224 389t486 176h7h8h6h6h33h32h16h15q27 2 41 9t27 30q4 4 7 11t7 16h104q-12 -80 -51 -122t-84 -61q-37 -14 -72.5 -17t-52.5 -3h-21h-22q-49 0 -103 -1t-108 -9q-133 -20 -253.5 -112.5t-174.5 -338.5h7q59 100 159.5 159.5 t208.5 76.5q18 4 39 5t39 1q156 0 255 -78t99 -215q0 -55 -8 -117.5t-27 -126.5q-47 -170 -174 -311t-358 -141q-31 0 -77 3t-95 17q-80 20 -145.5 83t-65.5 198zM295 281q0 -104 44 -155.5t95 -70.5q25 -8 49.5 -11t42.5 -3q158 0 262.5 188.5t114.5 413.5q2 12 2 24v21 q0 84 -50 148.5t-171 64.5q-16 0 -31.5 -2t-31.5 -6q-96 -23 -183.5 -124t-128.5 -302q-8 -45 -11 -92t-3 -94z" />
<glyph unicode="&#x431;" horiz-adv-x="1124" d="M129 281q0 78 11.5 209t54.5 270q63 213 224 389t486 176h7h8h6h6h33h32h16h15q27 2 41 9t27 30q4 4 7 11t7 16h104q-12 -80 -51 -122t-84 -61q-37 -14 -72.5 -17t-52.5 -3h-21h-22q-49 0 -103 -1t-108 -9q-133 -20 -253.5 -112.5t-174.5 -338.5h7q59 100 159.5 159.5 t208.5 76.5q18 4 39 5t39 1q156 0 255 -78t99 -215q0 -55 -8 -117.5t-27 -126.5q-47 -170 -174 -311t-358 -141q-31 0 -77 3t-95 17q-80 20 -145.5 83t-65.5 198zM295 281q0 -104 44 -155.5t95 -70.5q25 -8 49.5 -11t42.5 -3q158 0 262.5 188.5t114.5 413.5q2 12 2 24v21 q0 84 -50 148.5t-171 64.5q-16 0 -31.5 -2t-31.5 -6q-96 -23 -183.5 -124t-128.5 -302q-8 -45 -11 -92t-3 -94z" />
<glyph unicode="&#xe2;" horiz-adv-x="1052" d="M0 0l14 72h148l170 802h-148l15 72h526q115 0 185.5 -43t70.5 -129q0 -90 -69.5 -164.5t-178.5 -99.5l-4 -12q100 -4 147.5 -44t61.5 -85q4 -14 6 -28.5t2 -27.5q0 -25 -5 -51t-17 -55q-33 -78 -121 -142.5t-250 -64.5h-553zM322 72h182h27q13 0 28 2q35 4 70 18t73 49 q10 10 19 21l16 20q23 33 34 63.5t11 59.5q0 63 -58 105.5t-179 42.5h-142zM418 518h149q18 0 40 3t44 9q59 20 110.5 69.5t51.5 137.5q0 66 -28.5 94.5t-63.5 36.5q-20 4 -37.5 5t-32.5 1h-2h-157z" />
<glyph unicode="&#x432;" horiz-adv-x="1052" d="M0 0l14 72h148l170 802h-148l15 72h526q115 0 185.5 -43t70.5 -129q0 -90 -69.5 -164.5t-178.5 -99.5l-4 -12q100 -4 147.5 -44t61.5 -85q4 -14 6 -28.5t2 -27.5q0 -25 -5 -51t-17 -55q-33 -78 -121 -142.5t-250 -64.5h-553zM322 72h182h27q13 0 28 2q35 4 70 18t73 49 q10 10 19 21l16 20q23 33 34 63.5t11 59.5q0 63 -58 105.5t-179 42.5h-142zM418 518h149q18 0 40 3t44 9q59 20 110.5 69.5t51.5 137.5q0 66 -28.5 94.5t-63.5 36.5q-20 4 -37.5 5t-32.5 1h-2h-157z" />
<glyph unicode="&#xe3;" horiz-adv-x="835" d="M0 0l14 72h148l170 802h-148l15 72h741l-61 -293h-117l45 221h-309l-170 -802h157l-14 -72h-471z" />
<glyph unicode="&#x433;" horiz-adv-x="835" d="M0 0l14 72h148l170 802h-148l15 72h741l-61 -293h-117l45 221h-309l-170 -802h157l-14 -72h-471z" />
<glyph unicode="&#xe4;" horiz-adv-x="1155" d="M45 -305l125 100q18 -66 46 -104.5t56 -59.5q33 -20 63 -25t48 -5q27 0 56.5 4t60.5 16q59 23 115.5 90.5t86.5 210.5l33 148l17 47h-11q-53 -70 -131 -103.5t-174 -33.5q-143 0 -219 67.5t-98 149.5q-6 18 -8 35.5t-2 35.5q0 57 12 137t41 166q49 150 163.5 274 t321.5 124q23 0 47.5 -2t46.5 -9q45 -12 87 -41.5t75 -89.5l68 119h258l-17 -72h-145l-182 -858q-4 -18 -9.5 -38.5t-11.5 -40.5q-43 -152 -153.5 -280t-362.5 -128q-23 0 -74 6t-106 37q-33 18 -64.5 48t-58.5 75zM283 324q0 -129 58 -186.5t126 -63.5q8 -2 14 -2h13 q18 0 38.5 3t40.5 11q72 23 136.5 95.5t93.5 203.5l20 94l19 94q2 6 3 13.5t3 13.5q2 4 3 9t1 9q2 8 3 15.5t1 15.5q0 12 -1 26.5t-3 29.5q-10 68 -52 124t-132 56q-14 0 -30.5 -2t-31.5 -4q-94 -20 -179 -113.5t-124 -286.5q-10 -45 -15 -82.5t-5 -72.5z" />
<glyph unicode="&#x434;" horiz-adv-x="1155" d="M45 -305l125 100q18 -66 46 -104.5t56 -59.5q33 -20 63 -25t48 -5q27 0 56.5 4t60.5 16q59 23 115.5 90.5t86.5 210.5l33 148l17 47h-11q-53 -70 -131 -103.5t-174 -33.5q-143 0 -219 67.5t-98 149.5q-6 18 -8 35.5t-2 35.5q0 57 12 137t41 166q49 150 163.5 274 t321.5 124q23 0 47.5 -2t46.5 -9q45 -12 87 -41.5t75 -89.5l68 119h258l-17 -72h-145l-182 -858q-4 -18 -9.5 -38.5t-11.5 -40.5q-43 -152 -153.5 -280t-362.5 -128q-23 0 -74 6t-106 37q-33 18 -64.5 48t-58.5 75zM283 324q0 -129 58 -186.5t126 -63.5q8 -2 14 -2h13 q18 0 38.5 3t40.5 11q72 23 136.5 95.5t93.5 203.5l20 94l19 94q2 6 3 13.5t3 13.5q2 4 3 9t1 9q2 8 3 15.5t1 15.5q0 12 -1 26.5t-3 29.5q-10 68 -52 124t-132 56q-14 0 -30.5 -2t-31.5 -4q-94 -20 -179 -113.5t-124 -286.5q-10 -45 -15 -82.5t-5 -72.5z" />
<glyph unicode="&#xe5;" horiz-adv-x="1038" d="M111 266q0 45 4 91t14 94q39 195 165 356.5t357 161.5q182 0 259 -101.5t85 -224.5q2 -8 2 -17v-20q0 -14 -1 -29.5t-3 -31.5l-704 -105q-8 -33 -11.5 -62.5t-3.5 -55.5q0 -131 70 -199t164 -68q78 0 168 33t190 125l41 -59q-6 -4 -36.5 -31t-84.5 -57 q-55 -33 -133 -59.5t-172 -26.5q-18 0 -70.5 3t-109.5 21q-72 25 -131 84t-59 178zM303 518l516 78q2 16 3 31.5t1 29.5q-2 121 -47 175.5t-100 68.5q-10 2 -21.5 3t-21.5 1q-111 0 -203 -111.5t-127 -275.5z" />
<glyph unicode="&#x435;" horiz-adv-x="1038" d="M111 266q0 45 4 91t14 94q39 195 165 356.5t357 161.5q182 0 259 -101.5t85 -224.5q2 -8 2 -17v-20q0 -14 -1 -29.5t-3 -31.5l-704 -105q-8 -33 -11.5 -62.5t-3.5 -55.5q0 -131 70 -199t164 -68q78 0 168 33t190 125l41 -59q-6 -4 -36.5 -31t-84.5 -57 q-55 -33 -133 -59.5t-172 -26.5q-18 0 -70.5 3t-109.5 21q-72 25 -131 84t-59 178zM303 518l516 78q2 16 3 31.5t1 29.5q-2 121 -47 175.5t-100 68.5q-10 2 -21.5 3t-21.5 1q-111 0 -203 -111.5t-127 -275.5z" />
<glyph unicode="&#xe6;" horiz-adv-x="1613" d="M-37 2l14 70h39q29 0 77 29.5t130 119.5l340 373l-192 280h-148l15 72h415l-14 -72h-147l276 -411l88 411h-117l15 72h389l-15 -72h-116l-88 -411l452 411h-147l14 72h399l-14 -72h-131l-323 -288l178 -365q4 -10 9 -19t9 -18q29 -51 59.5 -81.5t65.5 -30.5h55l-16 -70 q-23 -6 -48.5 -12t-49.5 -8q-6 -2 -14 -2h-13h-9h-11q-39 4 -80 31.5t-90 123.5l-170 338l-152 -135l-55 -266h147l-16 -72h-449l15 72h147l55 266l-92 133l-309 -336q-74 -82 -126 -113.5t-97 -39.5q-10 0 -19.5 -1t-17.5 -1q-14 0 -29.5 2t-30.5 4l-28 8z" />
<glyph unicode="&#x436;" horiz-adv-x="1613" d="M-37 2l14 70h39q29 0 77 29.5t130 119.5l340 373l-192 280h-148l15 72h415l-14 -72h-147l276 -411l88 411h-117l15 72h389l-15 -72h-116l-88 -411l452 411h-147l14 72h399l-14 -72h-131l-323 -288l178 -365q4 -10 9 -19t9 -18q29 -51 59.5 -81.5t65.5 -30.5h55l-16 -70 q-23 -6 -48.5 -12t-49.5 -8q-6 -2 -14 -2h-13h-9h-11q-39 4 -80 31.5t-90 123.5l-170 338l-152 -135l-55 -266h147l-16 -72h-449l15 72h147l55 266l-92 133l-309 -336q-74 -82 -126 -113.5t-97 -39.5q-10 0 -19.5 -1t-17.5 -1q-14 0 -29.5 2t-30.5 4l-28 8z" />
<glyph unicode="&#xe7;" horiz-adv-x="966" d="M55 174l111 80q0 -94 66.5 -153.5t185.5 -59.5q104 0 177 58.5t81 127.5q2 4 2 9v8q0 145 -58.5 177t-148.5 32h-68l13 65h65q98 0 153.5 36t80.5 79q14 23 19 44t5 38q0 70 -22.5 124t-93.5 54q-25 0 -53.5 -3t-57.5 -11q-63 -18 -117.5 -67.5t-72.5 -149.5h-78l61 284 h76l-12 -57l-17 -39h13l12 22q37 35 77 55.5t81 28.5q29 8 57.5 10.5t54.5 2.5q143 0 195.5 -65.5t58.5 -143.5q2 -8 2 -18v-17q0 -10 -1 -20.5t-3 -20.5q-16 -57 -76.5 -109.5t-175.5 -72.5l-2 -13q92 -2 152.5 -61t60.5 -180q0 -125 -142.5 -198t-330.5 -73 q-125 0 -207 44t-123 153z" />
<glyph unicode="&#x437;" horiz-adv-x="966" d="M55 174l111 80q0 -94 66.5 -153.5t185.5 -59.5q104 0 177 58.5t81 127.5q2 4 2 9v8q0 145 -58.5 177t-148.5 32h-68l13 65h65q98 0 153.5 36t80.5 79q14 23 19 44t5 38q0 70 -22.5 124t-93.5 54q-25 0 -53.5 -3t-57.5 -11q-63 -18 -117.5 -67.5t-72.5 -149.5h-78l61 284 h76l-12 -57l-17 -39h13l12 22q37 35 77 55.5t81 28.5q29 8 57.5 10.5t54.5 2.5q143 0 195.5 -65.5t58.5 -143.5q2 -8 2 -18v-17q0 -10 -1 -20.5t-3 -20.5q-16 -57 -76.5 -109.5t-175.5 -72.5l-2 -13q92 -2 152.5 -61t60.5 -180q0 -125 -142.5 -198t-330.5 -73 q-125 0 -207 44t-123 153z" />
<glyph unicode="&#xe8;" horiz-adv-x="1196" d="M174 874l14 72h310l-136 -635q0 -4 -2 -10t-2 -14q-4 -14 -6 -31.5t-2 -38.5v-9q0 -5 2 -11q4 -51 34 -93.5t116 -42.5q106 0 182 74t102 199l115 540h-147l14 72h311l-153 -710q-2 -4 -4 -15.5t-4 -25.5q0 -4 -1.5 -7.5t-1.5 -7.5q-2 -18 -4 -33.5t-2 -21.5 q0 -29 14.5 -42t41.5 -13q10 0 24.5 3t28.5 9q8 2 15 5t16 5q10 6 20 10t14 9l33 -64q-20 -14 -50 -27.5t-60 -21.5q-33 -10 -63 -16.5t-50 -6.5q-61 0 -103 31t-40 82v12q0 6 2 13h-13l-20 -31q-6 -6 -13.5 -12.5t-15.5 -12.5q-70 -53 -137.5 -67.5t-124.5 -14.5 q-137 0 -186 62.5t-54 140.5v9v12q0 27 3.5 52t7.5 48q2 6 3 11t1 9l119 555h-148z" />
<glyph unicode="&#x438;" horiz-adv-x="1196" d="M174 874l14 72h310l-136 -635q0 -4 -2 -10t-2 -14q-4 -14 -6 -31.5t-2 -38.5v-9q0 -5 2 -11q4 -51 34 -93.5t116 -42.5q106 0 182 74t102 199l115 540h-147l14 72h311l-153 -710q-2 -4 -4 -15.5t-4 -25.5q0 -4 -1.5 -7.5t-1.5 -7.5q-2 -18 -4 -33.5t-2 -21.5 q0 -29 14.5 -42t41.5 -13q10 0 24.5 3t28.5 9q8 2 15 5t16 5q10 6 20 10t14 9l33 -64q-20 -14 -50 -27.5t-60 -21.5q-33 -10 -63 -16.5t-50 -6.5q-61 0 -103 31t-40 82v12q0 6 2 13h-13l-20 -31q-6 -6 -13.5 -12.5t-15.5 -12.5q-70 -53 -137.5 -67.5t-124.5 -14.5 q-137 0 -186 62.5t-54 140.5v9v12q0 27 3.5 52t7.5 48q2 6 3 11t1 9l119 555h-148z" />
<glyph unicode="&#xe9;" horiz-adv-x="1196" d="M174 874l14 72h312l-138 -635q0 -4 -1 -8t-3 -8q-2 -14 -4 -33.5t-2 -40.5v-13q0 -7 2 -15q4 -49 36 -90.5t112 -41.5h12q6 0 12 2q84 6 158 70t102 201l115 540h-147l14 72h311l-153 -710q-2 -6 -3 -15.5t-3 -19.5q-2 -8 -3.5 -15.5t-1.5 -15.5q-2 -12 -3 -23.5 t-1 -21.5q0 -25 10.5 -40t43.5 -15q10 0 25.5 4t31.5 10q4 2 10 4t10 4q14 6 25.5 11.5t17.5 7.5l31 -64q-6 -4 -15 -9t-20 -11q-18 -8 -40.5 -17.5t-45.5 -15.5q-29 -8 -55.5 -14.5t-46.5 -6.5q-61 0 -102 34t-41 85v5v5q0 2 1 5.5t1 5.5h-13l-20 -31q-68 -61 -140.5 -84 t-150.5 -23q-135 0 -184 63.5t-54 139.5v13v14q0 33 4.5 62.5t8.5 51.5l119 555h-148zM483 1327q0 12 1 24.5t3 24.5h146q-2 -10 -5 -27.5t-3 -39.5q0 -6 1 -14.5t1 -14.5q6 -39 30.5 -69.5t83.5 -30.5q86 0 140.5 55t79.5 121q2 4 3 9t3 11h90q-27 -111 -122 -192.5 t-222 -81.5q-113 0 -171.5 67.5t-58.5 157.5z" />
<glyph unicode="&#x439;" horiz-adv-x="1196" d="M174 874l14 72h312l-138 -635q0 -4 -1 -8t-3 -8q-2 -14 -4 -33.5t-2 -40.5v-13q0 -7 2 -15q4 -49 36 -90.5t112 -41.5h12q6 0 12 2q84 6 158 70t102 201l115 540h-147l14 72h311l-153 -710q-2 -6 -3 -15.5t-3 -19.5q-2 -8 -3.5 -15.5t-1.5 -15.5q-2 -12 -3 -23.5 t-1 -21.5q0 -25 10.5 -40t43.5 -15q10 0 25.5 4t31.5 10q4 2 10 4t10 4q14 6 25.5 11.5t17.5 7.5l31 -64q-6 -4 -15 -9t-20 -11q-18 -8 -40.5 -17.5t-45.5 -15.5q-29 -8 -55.5 -14.5t-46.5 -6.5q-61 0 -102 34t-41 85v5v5q0 2 1 5.5t1 5.5h-13l-20 -31q-68 -61 -140.5 -84 t-150.5 -23q-135 0 -184 63.5t-54 139.5v13v14q0 33 4.5 62.5t8.5 51.5l119 555h-148zM483 1327q0 12 1 24.5t3 24.5h146q-2 -10 -5 -27.5t-3 -39.5q0 -6 1 -14.5t1 -14.5q6 -39 30.5 -69.5t83.5 -30.5q86 0 140.5 55t79.5 121q2 4 3 9t3 11h90q-27 -111 -122 -192.5 t-222 -81.5q-113 0 -171.5 67.5t-58.5 157.5z" />
<glyph unicode="&#xea;" horiz-adv-x="1036" d="M0 0l14 72h148l170 802h-148l15 72h309l-105 -483l455 411h-131l14 72h340l-14 -72h-88l-322 -288l179 -365q4 -10 9 -20.5t11 -20.5q23 -41 51.5 -74.5t69.5 -33.5h55l-14 -70q-20 -6 -43 -11t-47 -9q-8 0 -17.5 -1t-19.5 -1q-33 0 -60.5 9t-54.5 36q-18 16 -35.5 43.5 t-38.5 66.5l-170 338l-153 -137l-57 -264h147l-14 -72h-455z" />
<glyph unicode="&#x43a;" horiz-adv-x="1036" d="M0 0l14 72h148l170 802h-148l15 72h309l-105 -483l455 411h-131l14 72h340l-14 -72h-88l-322 -288l179 -365q4 -10 9 -20.5t11 -20.5q23 -41 51.5 -74.5t69.5 -33.5h55l-14 -70q-20 -6 -43 -11t-47 -9q-8 0 -17.5 -1t-19.5 -1q-33 0 -60.5 9t-54.5 36q-18 16 -35.5 43.5 t-38.5 66.5l-170 338l-153 -137l-57 -264h147l-14 -72h-455z" />
<glyph unicode="&#xeb;" horiz-adv-x="1015" d="M-66 2l29 148q12 -14 25.5 -23.5t27.5 -15.5q10 -4 19.5 -6.5t17.5 -2.5q31 0 57.5 26t45.5 56q12 16 21 32.5t16 29.5l352 628h-154l15 72h323l115 -874h147l-14 -72h-461l14 72h148l-90 686l2 26h-12l-9 -26l-303 -555q-57 -106 -103 -154.5t-91 -60.5q-14 -4 -29.5 -6 t-32.5 -2q-16 0 -31.5 3t-29.5 11q-4 2 -7.5 4t-7.5 4z" />
<glyph unicode="&#x43b;" horiz-adv-x="1015" d="M-66 2l29 148q12 -14 25.5 -23.5t27.5 -15.5q10 -4 19.5 -6.5t17.5 -2.5q31 0 57.5 26t45.5 56q12 16 21 32.5t16 29.5l352 628h-154l15 72h323l115 -874h147l-14 -72h-461l14 72h148l-90 686l2 26h-12l-9 -26l-303 -555q-57 -106 -103 -154.5t-91 -60.5q-14 -4 -29.5 -6 t-32.5 -2q-16 0 -31.5 3t-29.5 11q-4 2 -7.5 4t-7.5 4z" />
<glyph unicode="&#xec;" horiz-adv-x="1361" d="M0 0l14 72h148l172 802h-148l15 72h342l153 -594v-16h13l4 16l362 594h191l-15 -72l-137 -638q-2 -6 -3 -15.5t-3 -19.5q-2 -8 -3 -15.5t-1 -15.5q-2 -12 -3 -23.5t-1 -21.5q0 -25 10 -40t43 -15q20 0 38.5 7t35.5 15q6 4 12 6l12 4l2 1q2 1 4 1q4 2 8.5 3.5t8.5 3.5 l31 -64q-86 -45 -142.5 -56t-85.5 -11q-84 0 -109.5 56t-25.5 126v3v3q0 12 2 22.5t6 22.5q0 6 2 11t2 12l121 567l12 37h-12l-20 -39l-428 -692h-47l-166 692l-6 39h-13l-4 -39l-158 -729h148l-14 -72h-367z" />
<glyph unicode="&#x43c;" horiz-adv-x="1361" d="M0 0l14 72h148l172 802h-148l15 72h342l153 -594v-16h13l4 16l362 594h191l-15 -72l-137 -638q-2 -6 -3 -15.5t-3 -19.5q-2 -8 -3 -15.5t-1 -15.5q-2 -12 -3 -23.5t-1 -21.5q0 -25 10 -40t43 -15q20 0 38.5 7t35.5 15q6 4 12 6l12 4l2 1q2 1 4 1q4 2 8.5 3.5t8.5 3.5 l31 -64q-86 -45 -142.5 -56t-85.5 -11q-84 0 -109.5 56t-25.5 126v3v3q0 12 2 22.5t6 22.5q0 6 2 11t2 12l121 567l12 37h-12l-20 -39l-428 -692h-47l-166 692l-6 39h-13l-4 -39l-158 -729h148l-14 -72h-367z" />
<glyph unicode="&#xed;" horiz-adv-x="1202" d="M0 0l14 72h148l170 802h-148l15 72h309l-92 -428h440l76 356h-148l15 72h309l-152 -710q-10 -53 -12 -79t-2 -32q0 -25 10.5 -40t42.5 -15q10 0 24.5 3t29.5 9q8 2 15 5t15 5q10 6 20.5 10t14.5 9l31 -64q-25 -14 -57.5 -28.5t-67.5 -22.5q-29 -8 -54.5 -12t-47.5 -4 q-84 0 -113 32.5t-31 73.5v5v5q0 16 2 32.5t4 29.5q2 4 3 8t1 8l58 279h-441l-79 -381h147l-14 -72h-455z" />
<glyph unicode="&#x43d;" horiz-adv-x="1202" d="M0 0l14 72h148l170 802h-148l15 72h309l-92 -428h440l76 356h-148l15 72h309l-152 -710q-10 -53 -12 -79t-2 -32q0 -25 10.5 -40t42.5 -15q10 0 24.5 3t29.5 9q8 2 15 5t15 5q10 6 20.5 10t14.5 9l31 -64q-25 -14 -57.5 -28.5t-67.5 -22.5q-29 -8 -54.5 -12t-47.5 -4 q-84 0 -113 32.5t-31 73.5v5v5q0 16 2 32.5t4 29.5q2 4 3 8t1 8l58 279h-441l-79 -381h147l-14 -72h-455z" />
<glyph unicode="&#xee;" horiz-adv-x="1110" d="M111 322q0 39 3 76.5t11 74.5q47 219 210 357.5t359 138.5q164 0 254 -85t113 -190q4 -16 6 -34.5t2 -34.5q0 -59 -13.5 -133t-45.5 -150q-25 -57 -63 -111.5t-91 -103.5q-12 -12 -25.5 -22.5t-25.5 -18.5q-88 -66 -173 -86t-151 -20q-164 0 -255 89t-111 195 q-2 14 -3 29t-1 29zM285 330q0 -12 2 -53t18 -87q16 -55 60.5 -100t132.5 -45q164 0 280.5 163t116.5 404q0 133 -54.5 211t-160.5 78q-141 0 -233.5 -118.5t-131.5 -262.5q-4 -12 -7 -23.5t-5 -23.5q-8 -33 -13 -68.5t-5 -70.5v-1v-3z" />
<glyph unicode="&#x43e;" horiz-adv-x="1110" d="M111 322q0 39 3 76.5t11 74.5q47 219 210 357.5t359 138.5q164 0 254 -85t113 -190q4 -16 6 -34.5t2 -34.5q0 -59 -13.5 -133t-45.5 -150q-25 -57 -63 -111.5t-91 -103.5q-12 -12 -25.5 -22.5t-25.5 -18.5q-88 -66 -173 -86t-151 -20q-164 0 -255 89t-111 195 q-2 14 -3 29t-1 29zM285 330q0 -12 2 -53t18 -87q16 -55 60.5 -100t132.5 -45q164 0 280.5 163t116.5 404q0 133 -54.5 211t-160.5 78q-141 0 -233.5 -118.5t-131.5 -262.5q-4 -12 -7 -23.5t-5 -23.5q-8 -33 -13 -68.5t-5 -70.5v-1v-3z" />
<glyph unicode="&#xef;" horiz-adv-x="1181" d="M0 0l14 72h148l168 794h-148l15 72h307l-27 -104h12l21 30q6 6 13 12.5t16 12.5q70 53 137 68.5t125 15.5q133 0 194.5 -66.5t61.5 -171.5q0 -25 -3 -52.5t-12 -55.5l-94 -391q0 -4 -1 -9.5t-3 -11.5q-2 -8 -3 -16.5t-3 -18.5q-2 -14 -3 -29.5t-1 -25.5q0 -25 10 -40 t43 -15q10 0 24.5 3t28.5 9q8 2 15.5 5t15.5 5q10 6 20.5 10t14.5 9l31 -64q-27 -16 -62 -30.5t-71 -22.5q-25 -6 -48.5 -10t-46.5 -4q-80 0 -109.5 32.5t-33.5 75.5q-2 4 -2 10v13q0 16 2 31.5t4 27.5q2 4 3 7t1 5l109 453q6 25 8 46t2 40q0 84 -46 124t-116 40 q-14 0 -58 -6.5t-93 -36.5q-45 -27 -85 -81t-61 -149l-112 -540h147l-14 -72h-455z" />
<glyph unicode="&#x43f;" horiz-adv-x="1181" d="M0 0l14 72h148l168 794h-148l15 72h307l-27 -104h12l21 30q6 6 13 12.5t16 12.5q70 53 137 68.5t125 15.5q133 0 194.5 -66.5t61.5 -171.5q0 -25 -3 -52.5t-12 -55.5l-94 -391q0 -4 -1 -9.5t-3 -11.5q-2 -8 -3 -16.5t-3 -18.5q-2 -14 -3 -29.5t-1 -25.5q0 -25 10 -40 t43 -15q10 0 24.5 3t28.5 9q8 2 15.5 5t15.5 5q10 6 20.5 10t14.5 9l31 -64q-27 -16 -62 -30.5t-71 -22.5q-25 -6 -48.5 -10t-46.5 -4q-80 0 -109.5 32.5t-33.5 75.5q-2 4 -2 10v13q0 16 2 31.5t4 27.5q2 4 3 7t1 5l109 453q6 25 8 46t2 40q0 84 -46 124t-116 40 q-14 0 -58 -6.5t-93 -36.5q-45 -27 -85 -81t-61 -149l-112 -540h147l-14 -72h-455z" />
<glyph unicode="&#xf0;" horiz-adv-x="1169" d="M35 -430l16 72l285 1232h-148l15 72h309l-16 -69l-23 -60l12 2q47 72 130 111t184 39q129 0 224 -70t95 -219q0 -16 -1 -33.5t-1 -36.5q-20 -238 -166.5 -434t-378.5 -196q-102 0 -163.5 36.5t-79.5 106.5h-13v-37l-102 -444h162l-15 -72h-325zM358 272q0 -104 53.5 -152 t118.5 -54h10h11q35 0 76 10t86 35q63 39 123.5 123.5t95.5 238.5q8 29 13 60.5t7 62.5q2 8 2 16v17q0 96 -47 174t-168 78q-16 0 -34.5 -2t-34.5 -9q-82 -23 -154 -97.5t-100 -205.5l-21 -94l-22 -94q-8 -29 -11.5 -56.5t-3.5 -50.5z" />
<glyph unicode="&#x440;" horiz-adv-x="1169" d="M35 -430l16 72l285 1232h-148l15 72h309l-16 -69l-23 -60l12 2q47 72 130 111t184 39q129 0 224 -70t95 -219q0 -16 -1 -33.5t-1 -36.5q-20 -238 -166.5 -434t-378.5 -196q-102 0 -163.5 36.5t-79.5 106.5h-13v-37l-102 -444h162l-15 -72h-325zM358 272q0 -104 53.5 -152 t118.5 -54h10h11q35 0 76 10t86 35q63 39 123.5 123.5t95.5 238.5q8 29 13 60.5t7 62.5q2 8 2 16v17q0 96 -47 174t-168 78q-16 0 -34.5 -2t-34.5 -9q-82 -23 -154 -97.5t-100 -205.5l-21 -94l-22 -94q-8 -29 -11.5 -56.5t-3.5 -50.5z" />
<glyph unicode="&#xf1;" horiz-adv-x="987" d="M111 471q0 186 124.5 310t274.5 167q37 10 71.5 15.5t69.5 5.5q82 0 130 -21.5t77 -48.5l3 -3l3 -3l8 -21h11l-2 27l8 47h96l-57 -272h-97q4 12 5.5 24.5t1.5 24.5q0 72 -57.5 117t-153.5 45q-135 0 -213 -124t-111 -272q-12 -55 -17 -108t-5 -100q0 -98 54 -148.5 t120 -60.5q8 0 16 -1t16 -1q41 0 78 5t74 17q43 14 87 37t93 55l37 -71q-66 -49 -148.5 -83t-168.5 -46q-18 -2 -36 -3t-34 -1q-193 0 -275.5 135t-82.5 356z" />
<glyph unicode="&#x441;" horiz-adv-x="987" d="M111 471q0 186 124.5 310t274.5 167q37 10 71.5 15.5t69.5 5.5q82 0 130 -21.5t77 -48.5l3 -3l3 -3l8 -21h11l-2 27l8 47h96l-57 -272h-97q4 12 5.5 24.5t1.5 24.5q0 72 -57.5 117t-153.5 45q-135 0 -213 -124t-111 -272q-12 -55 -17 -108t-5 -100q0 -98 54 -148.5 t120 -60.5q8 0 16 -1t16 -1q41 0 78 5t74 17q43 14 87 37t93 55l37 -71q-66 -49 -148.5 -83t-168.5 -46q-18 -2 -36 -3t-34 -1q-193 0 -275.5 135t-82.5 356z" />
<glyph unicode="&#xf2;" horiz-adv-x="1665" d="M0 0l14 72h148l170 802h-148l17 72h307l-14 -76l-17 -41h10q25 31 50.5 53.5t50.5 37.5q55 33 105 41t87 8q16 0 45 -3t60 -16q35 -16 66.5 -47t43.5 -88v-24h11l12 24q59 86 134 120t169 34q141 0 189.5 -63.5t48.5 -141.5v-13q0 -7 -3 -14q0 -20 -4 -39.5t-8 -35.5 l-112 -426q-2 -4 -4.5 -15.5t-4.5 -25.5q0 -4 -1 -7.5t-1 -7.5q-2 -18 -4 -33.5t-2 -21.5q0 -29 14.5 -42t40.5 -13q10 0 23.5 3t28.5 9q8 2 15 5t15 5q12 6 21.5 10t13.5 9l33 -64q-51 -27 -109.5 -47t-117.5 -20q-82 0 -111 35.5t-33 78.5v8v9q0 18 2 35.5t6 29.5 q0 6 2.5 11.5t2.5 9.5l110 409q10 37 16.5 72t6.5 63q0 59 -31 94t-109 35q-92 0 -148 -52t-87 -116q-20 -45 -32.5 -84.5t-16.5 -62.5l-103 -483h148l-15 -72h-454l14 72h148l114 534q2 6 3 14.5t3 16.5q2 14 5.5 30.5t3.5 32.5q2 6 2 15v14q0 55 -28 98t-112 43 q-94 0 -149 -55t-84 -123q-18 -39 -27.5 -74.5t-15.5 -62.5l-102 -483h147l-14 -72h-455z" />
<glyph unicode="&#x442;" horiz-adv-x="1665" d="M0 0l14 72h148l170 802h-148l17 72h307l-14 -76l-17 -41h10q25 31 50.5 53.5t50.5 37.5q55 33 105 41t87 8q16 0 45 -3t60 -16q35 -16 66.5 -47t43.5 -88v-24h11l12 24q59 86 134 120t169 34q141 0 189.5 -63.5t48.5 -141.5v-13q0 -7 -3 -14q0 -20 -4 -39.5t-8 -35.5 l-112 -426q-2 -4 -4.5 -15.5t-4.5 -25.5q0 -4 -1 -7.5t-1 -7.5q-2 -18 -4 -33.5t-2 -21.5q0 -29 14.5 -42t40.5 -13q10 0 23.5 3t28.5 9q8 2 15 5t15 5q12 6 21.5 10t13.5 9l33 -64q-51 -27 -109.5 -47t-117.5 -20q-82 0 -111 35.5t-33 78.5v8v9q0 18 2 35.5t6 29.5 q0 6 2.5 11.5t2.5 9.5l110 409q10 37 16.5 72t6.5 63q0 59 -31 94t-109 35q-92 0 -148 -52t-87 -116q-20 -45 -32.5 -84.5t-16.5 -62.5l-103 -483h148l-15 -72h-454l14 72h148l114 534q2 6 3 14.5t3 16.5q2 14 5.5 30.5t3.5 32.5q2 6 2 15v14q0 55 -28 98t-112 43 q-94 0 -149 -55t-84 -123q-18 -39 -27.5 -74.5t-15.5 -62.5l-102 -483h147l-14 -72h-455z" />
<glyph unicode="&#xf3;" horiz-adv-x="1038" d="M29 -422l96 164q8 -29 26.5 -54.5t43.5 -25.5q47 0 78.5 24.5t56.5 69.5l131 244l-240 874h-137l10 72h467l-10 -72h-172l180 -651l4 -39h12l11 39l342 651h-176l10 72h399l-10 -72h-127l-545 -1040q-10 -16 -19 -33.5t-18 -36.5q-49 -94 -111.5 -171.5t-156.5 -77.5 q-20 0 -48 5t-58 23q-10 8 -19.5 16.5t-19.5 18.5z" />
<glyph unicode="&#x443;" horiz-adv-x="1038" d="M29 -422l96 164q8 -29 26.5 -54.5t43.5 -25.5q47 0 78.5 24.5t56.5 69.5l131 244l-240 874h-137l10 72h467l-10 -72h-172l180 -651l4 -39h12l11 39l342 651h-176l10 72h399l-10 -72h-127l-545 -1040q-10 -16 -19 -33.5t-18 -36.5q-49 -94 -111.5 -171.5t-156.5 -77.5 q-20 0 -48 5t-58 23q-10 8 -19.5 16.5t-19.5 18.5z" />
<glyph unicode="&#xf4;" horiz-adv-x="1570" d="M111 285q0 57 9 122.5t27 133.5q35 119 106 227.5t185 169.5q43 16 86 25.5t82 9.5q76 0 133.5 -32t71.5 -97h10l2 33l92 428h-147l14 71h310l-107 -499l-10 -33h12q37 61 102.5 95t143.5 34q41 0 82 -9.5t82 -27.5q66 -47 98.5 -111.5t32.5 -160.5q0 -57 -9.5 -123 t-29.5 -133q-35 -119 -105.5 -227.5t-183.5 -170.5q-45 -16 -89 -25.5t-85 -9.5q-82 2 -137 36t-64 89h-8l-4 -32l-90 -426h147l-14 -72h-457l15 72h147l90 426l13 32h-11q-39 -57 -104.5 -90t-147.5 -33q-39 2 -79.5 10.5t-81.5 24.5q-66 49 -97.5 112t-31.5 161zM274 297 q0 -18 1 -48t8 -63q10 -51 43.5 -93t107.5 -42q104 0 167 81t95 177q16 45 26.5 87t18.5 77q2 10 4.5 19.5t6.5 19.5q6 25 11 51.5t5 52.5q0 170 -46 224.5t-110 54.5q-131 0 -234.5 -166t-103.5 -420v-5v-7zM868 330q0 -168 46.5 -223.5t109.5 -55.5q131 0 219 146.5 t113 322.5q4 31 6 59.5t2 57.5q0 139 -43 193.5t-94 62.5q-6 2 -13 2h-12q-104 0 -166.5 -81t-95.5 -177q-16 -45 -26.5 -87t-18.5 -77q-2 -10 -4 -19.5t-6 -19.5q-6 -25 -11.5 -51t-5.5 -53z" />
<glyph unicode="&#x444;" horiz-adv-x="1570" d="M111 285q0 57 9 122.5t27 133.5q35 119 106 227.5t185 169.5q43 16 86 25.5t82 9.5q76 0 133.5 -32t71.5 -97h10l2 33l92 428h-147l14 71h310l-107 -499l-10 -33h12q37 61 102.5 95t143.5 34q41 0 82 -9.5t82 -27.5q66 -47 98.5 -111.5t32.5 -160.5q0 -57 -9.5 -123 t-29.5 -133q-35 -119 -105.5 -227.5t-183.5 -170.5q-45 -16 -89 -25.5t-85 -9.5q-82 2 -137 36t-64 89h-8l-4 -32l-90 -426h147l-14 -72h-457l15 72h147l90 426l13 32h-11q-39 -57 -104.5 -90t-147.5 -33q-39 2 -79.5 10.5t-81.5 24.5q-66 49 -97.5 112t-31.5 161zM274 297 q0 -18 1 -48t8 -63q10 -51 43.5 -93t107.5 -42q104 0 167 81t95 177q16 45 26.5 87t18.5 77q2 10 4.5 19.5t6.5 19.5q6 25 11 51.5t5 52.5q0 170 -46 224.5t-110 54.5q-131 0 -234.5 -166t-103.5 -420v-5v-7zM868 330q0 -168 46.5 -223.5t109.5 -55.5q131 0 219 146.5 t113 322.5q4 31 6 59.5t2 57.5q0 139 -43 193.5t-94 62.5q-6 2 -13 2h-12q-104 0 -166.5 -81t-95.5 -177q-16 -45 -26.5 -87t-18.5 -77q-2 -10 -4 -19.5t-6 -19.5q-6 -25 -11.5 -51t-5.5 -53z" />
<glyph unicode="&#xf5;" horiz-adv-x="1046" d="M-41 0l14 72h144l366 395l-194 407h-148l15 72h452l-14 -72h-121l131 -276l254 276h-139l14 72h373l-14 -72h-121l-328 -354l213 -448h137l-14 -72h-463l14 72h142l-152 315l-291 -315h164l-14 -72h-420z" />
<glyph unicode="&#x445;" horiz-adv-x="1046" d="M-41 0l14 72h144l366 395l-194 407h-148l15 72h452l-14 -72h-121l131 -276l254 276h-139l14 72h373l-14 -72h-121l-328 -354l213 -448h137l-14 -72h-463l14 72h142l-152 315l-291 -315h164l-14 -72h-420z" />
<glyph unicode="&#xf6;" horiz-adv-x="1171" d="M174 874l14 72h310l-136 -635q0 -4 -2 -10t-2 -14q-4 -14 -6 -31.5t-2 -38.5v-9q0 -5 2 -11q4 -51 34 -93.5t116 -42.5q106 0 182 74t102 199l115 540h-147l14 72h311l-153 -710q-2 -4 -4 -15.5t-4 -25.5q0 -4 -1.5 -7.5t-1.5 -7.5q-2 -18 -4 -33.5t-2 -21.5 q0 -29 14.5 -42t41.5 -13q10 0 24.5 3t28.5 9q8 2 15 5t16 5q10 6 20 10t14 9l31 -64l-80 -430h-157l112 375q-2 0 -5 -1t-5 -1q-16 -6 -36.5 -10.5t-49.5 -4.5q-59 0 -102 30t-43 81v7q0 3 2 7q0 2 1 6.5t1 6.5h-13l-20 -31q-6 -6 -13.5 -12.5t-15.5 -12.5 q-70 -53 -137.5 -67.5t-124.5 -14.5q-137 0 -186 62.5t-54 140.5v9v12q0 27 3.5 52t7.5 48q2 6 3 11t1 9l119 555h-148z" />
<glyph unicode="&#x446;" horiz-adv-x="1171" d="M174 874l14 72h310l-136 -635q0 -4 -2 -10t-2 -14q-4 -14 -6 -31.5t-2 -38.5v-9q0 -5 2 -11q4 -51 34 -93.5t116 -42.5q106 0 182 74t102 199l115 540h-147l14 72h311l-153 -710q-2 -4 -4 -15.5t-4 -25.5q0 -4 -1.5 -7.5t-1.5 -7.5q-2 -18 -4 -33.5t-2 -21.5 q0 -29 14.5 -42t41.5 -13q10 0 24.5 3t28.5 9q8 2 15 5t16 5q10 6 20 10t14 9l31 -64l-80 -430h-157l112 375q-2 0 -5 -1t-5 -1q-16 -6 -36.5 -10.5t-49.5 -4.5q-59 0 -102 30t-43 81v7q0 3 2 7q0 2 1 6.5t1 6.5h-13l-20 -31q-6 -6 -13.5 -12.5t-15.5 -12.5 q-70 -53 -137.5 -67.5t-124.5 -14.5q-137 0 -186 62.5t-54 140.5v9v12q0 27 3.5 52t7.5 48q2 6 3 11t1 9l119 555h-148z" />
<glyph unicode="&#xf7;" horiz-adv-x="1091" d="M139 874l15 72h305l-17 -72l-57 -274q-2 -10 -5 -26.5t-3 -32.5v-7v-8q4 -35 34.5 -62.5t112.5 -27.5q16 0 38 2t42 6q14 2 27.5 5.5t25.5 5.5q16 4 29.5 7t24.5 5l88 407h-131l14 72h291l-15 -72l-137 -638q-2 -6 -3 -15.5t-3 -19.5q-2 -8 -3 -15.5t-1 -15.5 q-2 -12 -3 -23.5t-1 -21.5q0 -25 10 -40t43 -15q10 0 24.5 3t28.5 9q8 2 15.5 5t15.5 5q10 6 20.5 10t14.5 9l33 -64q-53 -27 -110.5 -47t-117.5 -20q-82 0 -110.5 32.5t-32.5 73.5v8v8q0 18 3 36t5 32l47 229q-31 -8 -63.5 -15t-67.5 -13q-45 -6 -89 -10.5t-81 -4.5 t-67.5 8.5t-59.5 30.5q-6 4 -12 11l-12 12q-16 29 -22.5 52.5t-6.5 43.5q0 8 1 16.5t1 16.5q2 12 5 24.5t5 26.5l60 276h-148z" />
<glyph unicode="&#x447;" horiz-adv-x="1091" d="M139 874l15 72h305l-17 -72l-57 -274q-2 -10 -5 -26.5t-3 -32.5v-7v-8q4 -35 34.5 -62.5t112.5 -27.5q16 0 38 2t42 6q14 2 27.5 5.5t25.5 5.5q16 4 29.5 7t24.5 5l88 407h-131l14 72h291l-15 -72l-137 -638q-2 -6 -3 -15.5t-3 -19.5q-2 -8 -3 -15.5t-1 -15.5 q-2 -12 -3 -23.5t-1 -21.5q0 -25 10 -40t43 -15q10 0 24.5 3t28.5 9q8 2 15.5 5t15.5 5q10 6 20.5 10t14.5 9l33 -64q-53 -27 -110.5 -47t-117.5 -20q-82 0 -110.5 32.5t-32.5 73.5v8v8q0 18 3 36t5 32l47 229q-31 -8 -63.5 -15t-67.5 -13q-45 -6 -89 -10.5t-81 -4.5 t-67.5 8.5t-59.5 30.5q-6 4 -12 11l-12 12q-16 29 -22.5 52.5t-6.5 43.5q0 8 1 16.5t1 16.5q2 12 5 24.5t5 26.5l60 276h-148z" />
<glyph unicode="&#xf8;" horiz-adv-x="1705" d="M174 877l14 71h310l-129 -606q-4 -16 -7.5 -33.5t-7.5 -36.5q-2 -18 -4 -35.5t-2 -33.5q0 -53 27.5 -91t103.5 -38q20 0 61.5 9t86.5 46q39 33 76.5 96.5t60.5 167.5l102 484h-131l15 71h292l-131 -606q-4 -18 -9 -43t-5 -51q-2 -6 -2 -14v-15q0 -57 27.5 -101t111.5 -44 q25 0 57.5 9t67.5 32q45 33 86 98.5t66 179.5l102 484h-131l14 71h293l-151 -712q-2 -4 -4 -15.5t-4 -25.5q0 -4 -1.5 -7.5t-1.5 -7.5q-2 -18 -4 -33.5t-2 -21.5q0 -29 14.5 -42t41.5 -13q10 0 22 3t27 7q10 2 20 6t19 8q10 4 17 8t11 9l33 -64q-27 -16 -60.5 -30.5 t-68.5 -22.5q-25 -6 -48.5 -10t-43.5 -4q-66 0 -108 33.5t-40 90.5v9v6h-10q-47 -66 -118.5 -102.5t-174.5 -36.5q-82 0 -127 29.5t-67 66.5q-8 14 -13.5 28.5t-7.5 26.5v27h-10l-12 -27q-16 -23 -33.5 -40t-34.5 -32q-70 -59 -134 -69t-101 -10q-16 0 -36 1t-38 5 q-59 10 -107.5 51t-48.5 145q0 23 3 48.5t10 54.5l125 592h-148z" />
<glyph unicode="&#x448;" horiz-adv-x="1705" d="M174 877l14 71h310l-129 -606q-4 -16 -7.5 -33.5t-7.5 -36.5q-2 -18 -4 -35.5t-2 -33.5q0 -53 27.5 -91t103.5 -38q20 0 61.5 9t86.5 46q39 33 76.5 96.5t60.5 167.5l102 484h-131l15 71h292l-131 -606q-4 -18 -9 -43t-5 -51q-2 -6 -2 -14v-15q0 -57 27.5 -101t111.5 -44 q25 0 57.5 9t67.5 32q45 33 86 98.5t66 179.5l102 484h-131l14 71h293l-151 -712q-2 -4 -4 -15.5t-4 -25.5q0 -4 -1.5 -7.5t-1.5 -7.5q-2 -18 -4 -33.5t-2 -21.5q0 -29 14.5 -42t41.5 -13q10 0 22 3t27 7q10 2 20 6t19 8q10 4 17 8t11 9l33 -64q-27 -16 -60.5 -30.5 t-68.5 -22.5q-25 -6 -48.5 -10t-43.5 -4q-66 0 -108 33.5t-40 90.5v9v6h-10q-47 -66 -118.5 -102.5t-174.5 -36.5q-82 0 -127 29.5t-67 66.5q-8 14 -13.5 28.5t-7.5 26.5v27h-10l-12 -27q-16 -23 -33.5 -40t-34.5 -32q-70 -59 -134 -69t-101 -10q-16 0 -36 1t-38 5 q-59 10 -107.5 51t-48.5 145q0 23 3 48.5t10 54.5l125 592h-148z" />
<glyph unicode="&#xf9;" horiz-adv-x="1705" d="M174 877l14 71h310l-129 -606q-4 -16 -7.5 -33.5t-7.5 -36.5q-2 -18 -4 -35.5t-2 -33.5q0 -53 27.5 -91t103.5 -38q20 0 61.5 9t86.5 46q39 33 76.5 96.5t60.5 167.5l102 484h-131l15 71h292l-131 -606q-4 -18 -9 -43t-5 -51q-2 -6 -2 -14v-15q0 -57 27.5 -101t111.5 -44 q25 0 57.5 9t67.5 32q45 33 86 98.5t66 179.5l102 484h-131l14 71h293l-151 -712q-2 -4 -4 -15.5t-4 -25.5q0 -4 -1.5 -7.5t-1.5 -7.5q-2 -18 -4 -33.5t-2 -21.5q0 -29 14.5 -42t41.5 -13q10 0 22 3t27 7q10 2 20 6t19 8q10 4 17 8t11 9l33 -64l-80 -430h-157l114 379 q-2 0 -5 -1t-5 -1q-16 -6 -37.5 -10t-50.5 -4q-66 0 -108 33.5t-40 90.5v9v6h-10q-47 -66 -118.5 -102.5t-174.5 -36.5q-92 0 -149 46t-64 101q-2 4 -2 8v8v4v5v2v4h-10q-25 -68 -94.5 -113t-147.5 -57q-18 -4 -36.5 -6t-36.5 -2q-16 0 -36 1t-38 5q-59 10 -107.5 51 t-48.5 145q0 23 3 48.5t10 54.5l125 592h-148z" />
<glyph unicode="&#x449;" horiz-adv-x="1705" d="M174 877l14 71h310l-129 -606q-4 -16 -7.5 -33.5t-7.5 -36.5q-2 -18 -4 -35.5t-2 -33.5q0 -53 27.5 -91t103.5 -38q20 0 61.5 9t86.5 46q39 33 76.5 96.5t60.5 167.5l102 484h-131l15 71h292l-131 -606q-4 -18 -9 -43t-5 -51q-2 -6 -2 -14v-15q0 -57 27.5 -101t111.5 -44 q25 0 57.5 9t67.5 32q45 33 86 98.5t66 179.5l102 484h-131l14 71h293l-151 -712q-2 -4 -4 -15.5t-4 -25.5q0 -4 -1.5 -7.5t-1.5 -7.5q-2 -18 -4 -33.5t-2 -21.5q0 -29 14.5 -42t41.5 -13q10 0 22 3t27 7q10 2 20 6t19 8q10 4 17 8t11 9l33 -64l-80 -430h-157l114 379 q-2 0 -5 -1t-5 -1q-16 -6 -37.5 -10t-50.5 -4q-66 0 -108 33.5t-40 90.5v9v6h-10q-47 -66 -118.5 -102.5t-174.5 -36.5q-92 0 -149 46t-64 101q-2 4 -2 8v8v4v5v2v4h-10q-25 -68 -94.5 -113t-147.5 -57q-18 -4 -36.5 -6t-36.5 -2q-16 0 -36 1t-38 5q-59 10 -107.5 51 t-48.5 145q0 23 3 48.5t10 54.5l125 592h-148z" />
<glyph unicode="&#xfa;" horiz-adv-x="1185" d="M100 662l60 284h553l-15 -72l-75 -356h206q27 0 58 -1t61 -7q74 -12 135.5 -62.5t61.5 -183.5q0 -119 -106.5 -191.5t-270.5 -72.5h-563l14 72h148l170 802h-267l-45 -212h-125zM526 72h197q20 0 46 2t52 8q57 12 104.5 54t47.5 134t-33 129t-72 47q-18 4 -33.5 5.5 t-29.5 1.5h-197z" />
<glyph unicode="&#x44a;" horiz-adv-x="1185" d="M100 662l60 284h553l-15 -72l-75 -356h206q27 0 58 -1t61 -7q74 -12 135.5 -62.5t61.5 -183.5q0 -119 -106.5 -191.5t-270.5 -72.5h-563l14 72h148l170 802h-267l-45 -212h-125zM526 72h197q20 0 46 2t52 8q57 12 104.5 54t47.5 134t-33 129t-72 47q-18 4 -33.5 5.5 t-29.5 1.5h-197z" />
<glyph unicode="&#xfb;" horiz-adv-x="1476" d="M0 0l14 72h148l172 802h-148l15 72h309l-94 -428h200h5h4q25 0 57.5 -1t67.5 -9q63 -16 117.5 -70.5t54.5 -185.5q0 -135 -114 -193.5t-253 -58.5h-555zM322 72h188h1q17 0 50 3t70 17q41 18 76.5 59.5t50.5 118.5q2 12 3 24.5t1 22.5t-1 19.5t-3 17.5q-10 43 -39 63.5 t-62 28.5q-18 4 -34.5 5.5t-30.5 1.5h-189zM1047 91v13q0 12 1 24.5t3 21.5q2 6 3 11t1 9l149 704h-147l14 72h309l-14 -72l-137 -638q-2 -6 -3 -15.5t-3 -19.5q-2 -8 -3 -15.5t-1 -15.5q-2 -12 -3.5 -23.5t-1.5 -21.5q0 -25 11.5 -40t42.5 -15q10 0 25.5 4t31.5 10 q4 2 10 4t11 4q14 6 25 11.5t18 7.5l30 -64q-29 -14 -59.5 -27.5t-61.5 -21.5q-27 -8 -53 -13t-51 -5q-80 0 -110.5 30.5t-34.5 67.5q-2 6 -2 13z" />
<glyph unicode="&#x44b;" horiz-adv-x="1476" d="M0 0l14 72h148l172 802h-148l15 72h309l-94 -428h200h5h4q25 0 57.5 -1t67.5 -9q63 -16 117.5 -70.5t54.5 -185.5q0 -135 -114 -193.5t-253 -58.5h-555zM322 72h188h1q17 0 50 3t70 17q41 18 76.5 59.5t50.5 118.5q2 12 3 24.5t1 22.5t-1 19.5t-3 17.5q-10 43 -39 63.5 t-62 28.5q-18 4 -34.5 5.5t-30.5 1.5h-189zM1047 91v13q0 12 1 24.5t3 21.5q2 6 3 11t1 9l149 704h-147l14 72h309l-14 -72l-137 -638q-2 -6 -3 -15.5t-3 -19.5q-2 -8 -3 -15.5t-1 -15.5q-2 -12 -3.5 -23.5t-1.5 -21.5q0 -25 11.5 -40t42.5 -15q10 0 25.5 4t31.5 10 q4 2 10 4t11 4q14 6 25 11.5t18 7.5l30 -64q-29 -14 -59.5 -27.5t-61.5 -21.5q-27 -8 -53 -13t-51 -5q-80 0 -110.5 30.5t-34.5 67.5q-2 6 -2 13z" />
<glyph unicode="&#xfc;" horiz-adv-x="983" d="M0 0l14 72h148l170 802h-148l15 72h309l-14 -72l-76 -356h207h4h4q25 0 61.5 -2t73.5 -12q66 -16 119 -71.5t53 -180.5q0 -131 -111.5 -189.5t-246.5 -62.5h-9h-8h-565zM322 72h196h1q19 0 51 2t67 16q41 16 78 57t51 123q2 12 3 24.5t1 22.5t-1 19.5t-3 17.5 q-10 41 -38 62.5t-60 27.5q-16 6 -34 7.5t-32 1.5h-199z" />
<glyph unicode="&#x44c;" horiz-adv-x="983" d="M0 0l14 72h148l170 802h-148l15 72h309l-14 -72l-76 -356h207h4h4q25 0 61.5 -2t73.5 -12q66 -16 119 -71.5t53 -180.5q0 -131 -111.5 -189.5t-246.5 -62.5h-9h-8h-565zM322 72h196h1q19 0 51 2t67 16q41 16 78 57t51 123q2 12 3 24.5t1 22.5t-1 19.5t-3 17.5 q-10 41 -38 62.5t-60 27.5q-16 6 -34 7.5t-32 1.5h-199z" />
<glyph unicode="&#xfd;" horiz-adv-x="1003" d="M51 166l103 86q4 -16 11 -33.5t17 -34.5q27 -53 79 -96t140 -43q115 0 186.5 70.5t110.5 156.5q25 51 39.5 99.5t22.5 81.5h-350l12 65h352q4 20 8 42t6 44q2 6 3 13v16q0 109 -32 164t-69 77q-27 16 -50.5 21.5t-37.5 5.5q-102 0 -183 -73.5t-114 -172.5h-72l62 291h72 l-11 -49l-12 -29h10l17 25q43 33 88 50.5t90 21.5q14 2 29.5 3t29.5 1q182 0 267.5 -102.5t85.5 -274.5q0 -43 -6.5 -89t-20.5 -91q-45 -164 -177 -298t-360 -134q-121 0 -204 40t-142 146z" />
<glyph unicode="&#x44d;" horiz-adv-x="1003" d="M51 166l103 86q4 -16 11 -33.5t17 -34.5q27 -53 79 -96t140 -43q115 0 186.5 70.5t110.5 156.5q25 51 39.5 99.5t22.5 81.5h-350l12 65h352q4 20 8 42t6 44q2 6 3 13v16q0 109 -32 164t-69 77q-27 16 -50.5 21.5t-37.5 5.5q-102 0 -183 -73.5t-114 -172.5h-72l62 291h72 l-11 -49l-12 -29h10l17 25q43 33 88 50.5t90 21.5q14 2 29.5 3t29.5 1q182 0 267.5 -102.5t85.5 -274.5q0 -43 -6.5 -89t-20.5 -91q-45 -164 -177 -298t-360 -134q-121 0 -204 40t-142 146z" />
<glyph unicode="&#xfe;" horiz-adv-x="1632" d="M0 0l14 72h148l170 802h-148l15 72h307l-90 -428h241q59 186 212 318.5t348 132.5q168 0 271 -96.5t103 -247.5q0 -37 -5 -77t-15 -79q-45 -184 -190.5 -336.5t-374.5 -152.5q-164 0 -267.5 95t-103.5 247q0 33 1 65.5t7 65.5h-242l-79 -381h147l-14 -72h-455zM809 334 q0 -137 44 -198.5t97 -80.5q18 -6 37 -8t35 -2q31 0 64.5 7t68.5 24q98 45 180 171t82 365q0 145 -46 206t-103 75q-16 4 -32.5 6t-31.5 2q-33 0 -70.5 -8t-76.5 -31q-68 -37 -130.5 -127t-99.5 -262q-8 -33 -13 -68.5t-5 -70.5z" />
<glyph unicode="&#x44e;" horiz-adv-x="1632" d="M0 0l14 72h148l170 802h-148l15 72h307l-90 -428h241q59 186 212 318.5t348 132.5q168 0 271 -96.5t103 -247.5q0 -37 -5 -77t-15 -79q-45 -184 -190.5 -336.5t-374.5 -152.5q-164 0 -267.5 95t-103.5 247q0 33 1 65.5t7 65.5h-242l-79 -381h147l-14 -72h-455zM809 334 q0 -137 44 -198.5t97 -80.5q18 -6 37 -8t35 -2q31 0 64.5 7t68.5 24q98 45 180 171t82 365q0 145 -46 206t-103 75q-16 4 -32.5 6t-31.5 2q-33 0 -70.5 -8t-76.5 -31q-68 -37 -130.5 -127t-99.5 -262q-8 -33 -13 -68.5t-5 -70.5z" />
<glyph unicode="&#xff;" horiz-adv-x="1069" d="M-20 2l12 70h26q68 0 108 35.5t73 87.5q12 20 25.5 40.5t25.5 40.5q31 43 70.5 84t99.5 70l45 16v13l-37 -4h-3h-1h-3h-3q-96 0 -148.5 61.5t-52.5 153.5q0 23 7 51.5t24 56.5q35 63 123 115.5t254 52.5h381l-179 -710q-8 -31 -13 -54.5t-7 -46.5v-5v-5q0 -27 14.5 -41 t44.5 -14q10 0 25.5 4t32.5 10q4 2 9 4t11 4q12 6 24.5 11.5t18.5 7.5l25 -64q-23 -10 -42.5 -20.5t-37.5 -18.5q-31 -12 -63.5 -20t-77.5 -8q-12 0 -27.5 1t-32.5 3q-31 8 -57.5 31.5t-26.5 80.5q0 16 2 35t8 39l70 276h-156l-237 -321q-8 -12 -20.5 -26.5t-28.5 -28.5 q-35 -35 -86.5 -62.5t-116.5 -27.5q-25 0 -46.5 4t-39.5 12q-4 2 -8 3t-8 3zM393 684q0 -70 30 -118t167 -48h155l89 356h-205q-16 0 -47 -2t-64 -12q-47 -16 -86 -55t-39 -121z" />
<glyph unicode="&#x44f;" horiz-adv-x="1069" d="M-20 2l12 70h26q68 0 108 35.5t73 87.5q12 20 25.5 40.5t25.5 40.5q31 43 70.5 84t99.5 70l45 16v13l-37 -4h-3h-1h-3h-3q-96 0 -148.5 61.5t-52.5 153.5q0 23 7 51.5t24 56.5q35 63 123 115.5t254 52.5h381l-179 -710q-8 -31 -13 -54.5t-7 -46.5v-5v-5q0 -27 14.5 -41 t44.5 -14q10 0 25.5 4t32.5 10q4 2 9 4t11 4q12 6 24.5 11.5t18.5 7.5l25 -64q-23 -10 -42.5 -20.5t-37.5 -18.5q-31 -12 -63.5 -20t-77.5 -8q-12 0 -27.5 1t-32.5 3q-31 8 -57.5 31.5t-26.5 80.5q0 16 2 35t8 39l70 276h-156l-237 -321q-8 -12 -20.5 -26.5t-28.5 -28.5 q-35 -35 -86.5 -62.5t-116.5 -27.5q-25 0 -46.5 4t-39.5 12q-4 2 -8 3t-8 3zM393 684q0 -70 30 -118t167 -48h155l89 356h-205q-16 0 -47 -2t-64 -12q-47 -16 -86 -55t-39 -121z" />
<glyph unicode="&#x152;" horiz-adv-x="2029" d="M172 453q0 57 8 117.5t27 121.5q72 262 283.5 482.5t527.5 220.5q47 0 95 -6.5t97 -18.5h877l-53 -244h-111l31 136h-543l-104 -490h448l35 162h111l-84 -393h-111l31 145h-449l-121 -577h572l41 186h110l-63 -295h-901q-47 -10 -96.5 -15t-98.5 -5q-211 0 -385 113.5 t-174 359.5zM360 506q0 -197 107.5 -320t284.5 -123q66 0 113.5 12.5t82.5 26.5q10 4 21 10l18 9l240 1126q-6 4 -13.5 8.5t-15.5 10.5q-29 14 -73 27.5t-109 13.5q-276 0 -462.5 -245t-193.5 -538v-9v-9z" />
<glyph unicode="&#x153;" horiz-adv-x="1802" d="M111 322q0 35 4 71.5t12 73.5q45 188 191.5 345t375.5 157q133 0 213 -56.5t119 -130.5q61 72 140 117t163 62q20 4 43 6t43 2q184 0 264 -107.5t82 -236.5v-3v-4q0 -18 -1 -36.5t-5 -36.5l-704 -105q-6 -23 -10.5 -52.5t-2.5 -63.5q0 -12 1 -24.5t1 -27.5 q10 -80 59.5 -148.5t172.5 -68.5q78 0 151.5 27t147.5 82l28 24l29 25l41 -59q-51 -49 -114.5 -86t-131.5 -60q-45 -12 -91 -20t-87 -8h-9h-9q-102 4 -193.5 50t-132.5 142l-45 -45q-12 -12 -25.5 -22.5t-25.5 -18.5q-88 -66 -173 -86t-151 -20q-164 0 -255 89t-111 195 q-2 14 -3 29t-1 29zM285 330q0 -12 2 -53t18 -87q16 -55 60.5 -100t132.5 -45q164 0 280.5 163t116.5 404q0 133 -54.5 211t-160.5 78q-141 0 -233.5 -118.5t-131.5 -262.5q-4 -12 -7 -23.5t-5 -23.5q-8 -33 -13 -68.5t-5 -70.5v-1v-3zM1067 518l516 78q2 119 -26.5 212 t-159.5 93q-115 0 -205 -106.5t-125 -276.5z" />
<glyph unicode="&#x178;" horiz-adv-x="1519" d="M530 643q0 100 69 162.5t149 66.5h7h5h5h7q80 -4 148.5 -66.5t68.5 -162.5q0 -88 -63.5 -158.5t-165.5 -70.5q-88 0 -159 64.5t-71 164.5z" />
<glyph unicode="&#x2c6;" horiz-adv-x="2" d="M-195 1182q39 74 94.5 121t112.5 59q8 2 18.5 3t18.5 1q18 0 36.5 -6t35.5 -12q4 0 7 -1t5 -4q12 -4 23.5 -9t21.5 -9q41 -18 76 -33.5t63 -15.5h9h10q16 0 41.5 5t52.5 30q10 10 21.5 23.5t21.5 31.5l55 -33q-4 -8 -8 -15t-8 -13q-35 -61 -90 -112.5t-119 -51.5 q-27 0 -52.5 3t-49.5 11q-16 6 -31.5 12.5t-30.5 12.5q-37 14 -66.5 28.5t-58.5 20.5q-4 0 -8 1t-8 1q-4 2 -8 2h-8q-6 0 -12.5 -1t-12.5 -3t-13 -5t-14 -7q-18 -10 -35.5 -25.5t-29.5 -34.5q-4 -2 -6 -5t-4 -7h-2z" />
<glyph unicode="&#x2dc;" horiz-adv-x="0" d="M-141 1176q27 14 54.5 33.5t55.5 41.5q27 23 52.5 47.5t50.5 49.5q27 27 50 54.5t42 51.5h98q6 -25 17.5 -54.5t27.5 -58.5q25 -51 60.5 -97t72.5 -75l-47 -61q-27 14 -45 26.5t-35 24.5q-8 6 -16 13.5t-14 13.5q-10 10 -21.5 20.5t-23.5 22.5q-10 10 -18.5 17t-14.5 14 q-6 6 -13.5 12t-15.5 14q-68 -49 -120 -85t-99 -64q-18 -8 -34.5 -17.5t-35.5 -17.5z" />
<glyph unicode="&#x2000;" horiz-adv-x="866" />
<glyph unicode="&#x2001;" horiz-adv-x="1732" />
<glyph unicode="&#x2002;" horiz-adv-x="866" />
<glyph unicode="&#x2003;" horiz-adv-x="1732" />
<glyph unicode="&#x2004;" horiz-adv-x="577" />
<glyph unicode="&#x2005;" horiz-adv-x="432" />
<glyph unicode="&#x2006;" horiz-adv-x="288" />
<glyph unicode="&#x2007;" horiz-adv-x="288" />
<glyph unicode="&#x2008;" horiz-adv-x="215" />
<glyph unicode="&#x2009;" horiz-adv-x="346" />
<glyph unicode="&#x200a;" horiz-adv-x="96" />
<glyph unicode="&#x2010;" horiz-adv-x="720" d="M168 453l31 145h463l-31 -145h-463z" />
<glyph unicode="&#x2011;" horiz-adv-x="720" d="M168 453l31 145h463l-31 -145h-463z" />
<glyph unicode="&#x2012;" horiz-adv-x="720" d="M168 453l31 145h463l-31 -145h-463z" />
<glyph unicode="&#x2013;" horiz-adv-x="1519" d="M115 567v121h1347v-121h-1347z" />
<glyph unicode="&#x2014;" horiz-adv-x="2156" d="M182 526l23 105h1872l-21 -105h-1874z" />
<glyph unicode="&#x2018;" horiz-adv-x="538" d="M184 901l215 504h80l-106 -504h-189z" />
<glyph unicode="&#x2019;" horiz-adv-x="538" d="M184 901l107 504h188l-215 -504h-80z" />
<glyph unicode="&#x201a;" horiz-adv-x="538" d="M59 -264l107 506h188l-215 -506h-80z" />
<glyph unicode="&#x201c;" horiz-adv-x="1064" d="M315 1227l215 506h80l-106 -506h-189zM684 1227l215 506h80l-107 -506h-188z" />
<glyph unicode="&#x201d;" horiz-adv-x="1064" d="M315 1227l107 506h188l-215 -506h-80zM684 1227l107 506h188l-215 -506h-80z" />
<glyph unicode="&#x201e;" d="M203 -264l106 506h189l-215 -506h-80zM571 -264l107 506h188l-215 -506h-80z" />
<glyph unicode="&#x2022;" horiz-adv-x="1519" d="M530 643q0 100 69 162.5t149 66.5h7h5h5h7q80 -4 148.5 -66.5t68.5 -162.5q0 -88 -63.5 -158.5t-165.5 -70.5q-88 0 -159 64.5t-71 164.5z" />
<glyph unicode="&#x2026;" horiz-adv-x="1429" d="M127 59q0 8 1 14.5t3 14.5q0 4 1 7t1 7q2 8 6 25.5t17 36.5q12 25 37.5 45t66.5 20q4 0 15.5 -1t23.5 -7q14 -6 27.5 -23.5t13.5 -50.5q0 -14 -3 -31.5t-9 -35.5q-12 -37 -41 -68.5t-80 -31.5q-37 0 -54.5 17t-23.5 40q0 6 -1 11t-1 11zM629 59q0 10 1 21.5t3 21.5 q10 53 44 90t85 37q37 0 54.5 -18t23.5 -41q0 -6 1 -11t1 -12q0 -14 -3 -31.5t-10 -35.5q-12 -37 -40.5 -68.5t-79.5 -31.5q-4 0 -15.5 1t-23.5 7q-14 6 -27.5 22t-13.5 49zM1130 51v8q0 10 1.5 21.5t3.5 21.5q10 51 43.5 89t85.5 38q39 0 58 -23.5t19 -58.5v-12 q0 -6 -2 -12q-6 -55 -40.5 -99t-90.5 -44q-37 0 -54 19t-21 44q-3 4 -3 8z" />
<glyph unicode="&#x202f;" horiz-adv-x="346" />
<glyph unicode="&#x2039;" horiz-adv-x="733" d="M168 508l299 387h139l-295 -387l131 -387h-139z" />
<glyph unicode="&#x203a;" horiz-adv-x="735" d="M168 121l297 387l-131 387h139l135 -387l-301 -387h-139z" />
<glyph unicode="&#x205f;" horiz-adv-x="432" />
<glyph unicode="&#x2122;" horiz-adv-x="2191" d="M229 1393v225h725v-225h-90v168h-209v-633h123v-56h-372v56h122v633h-209v-168h-90zM1098 872v56h123v633h-123v57h278l223 -469l7 -29h10l6 27l207 471h276v-57h-123v-633h123v-56h-372v56h122v596l5 35l-9 2l-12 -37l-254 -568h-31l-264 568l-14 37l-8 -2l4 -35v-596 h123v-56h-297z" />
<glyph unicode="&#xe000;" horiz-adv-x="945" d="M0 945h945v-945h-945v945z" />
<glyph unicode="&#xfb01;" horiz-adv-x="1273" d="M813 118q2 13 4 27l180 729h-147l14 72h314l-178 -710q-2 -6 -4.5 -18.5t-6.5 -27.5q0 -2 -1 -5t-1 -5q-4 -18 -6 -33.5t-2 -21.5q0 -29 13.5 -42t39.5 -13q10 0 24.5 4t31.5 8q8 2 15 5t13 5q12 6 22.5 10t14.5 9l19 -64q-61 -31 -120 -50.5t-104 -19.5q-8 0 -16 1.5 t-16 1.5q-39 6 -73 30q-32 23 -32 78q0 16 2 30zM1071 1260q0 4 1 7t1 7q8 29 40 54.5t67 29.5q4 2 8 2h8q29 0 48.5 -14.5t27.5 -36.5q0 -2 1 -6.5t1 -6.5v-7v-7v-5v-5q0 -4 -1 -6t-1 -6q-10 -39 -44 -70t-81 -31q-45 0 -60.5 31t-15.5 70zM0 0l14 72h148l172 802h-148 l15 72h147l33 154q29 135 120 212t195 77q55 0 97.5 -21.5t76.5 -71.5l-106 -94q-8 47 -27.5 84t-58.5 37q-41 0 -64.5 -30.5t-38.5 -67.5q-8 -23 -14 -44.5t-8 -35.5l-43 -199h199l-15 -72h-200l-172 -802h147l-14 -72h-455z" />
<glyph unicode="&#xfb02;" horiz-adv-x="1212" d="M621 0l14 72h147l261 1231h-148l14 71h312l-279 -1302h148l-15 -72h-454zM0 0l14 72h148l172 802h-148l15 72h147l33 154q29 135 120 212t195 77q55 0 97.5 -21.5t76.5 -71.5l-106 -94q-8 47 -27.5 84t-58.5 37q-41 0 -64.5 -30.5t-38.5 -67.5q-8 -23 -14 -44.5t-8 -35.5 l-43 -199h199l-15 -72h-200l-172 -802h147l-14 -72h-455z" />
<glyph unicode="&#xfb03;" horiz-adv-x="1908" d="M1448 118q2 13 4 27l180 729h-147l14 72h314l-178 -710q-2 -6 -4.5 -18.5t-6.5 -27.5q0 -2 -1 -5t-1 -5q-4 -18 -6 -33.5t-2 -21.5q0 -29 13.5 -42t39.5 -13q10 0 24.5 4t31.5 8q8 2 15 5t13 5q12 6 22.5 10t14.5 9l19 -64q-61 -31 -120 -50.5t-104 -19.5q-8 0 -16 1.5 t-16 1.5q-39 6 -73 30q-32 23 -32 78q0 16 2 30zM1706 1260q0 4 1 7t1 7q8 29 40 54.5t67 29.5q4 2 8 2h8q29 0 48.5 -14.5t27.5 -36.5q0 -2 1 -6.5t1 -6.5v-7v-7v-5v-5q0 -4 -1 -6t-1 -6q-10 -39 -44 -70t-81 -31q-45 0 -60.5 31t-15.5 70zM635 0l14 72h148l172 802h-148 l15 72h147l33 154q29 135 120 212t195 77q55 0 97.5 -21.5t76.5 -71.5l-106 -94q-8 47 -27.5 84t-58.5 37q-41 0 -64.5 -30.5t-38.5 -67.5q-8 -23 -14 -44.5t-8 -35.5l-43 -199h199l-15 -72h-200l-172 -802h147l-14 -72h-455zM0 0l14 72h148l172 802h-148l15 72h147l33 154 q29 135 120 212t195 77q55 0 97.5 -21.5t76.5 -71.5l-106 -94q-8 47 -27.5 84t-58.5 37q-41 0 -64.5 -30.5t-38.5 -67.5q-8 -23 -14 -44.5t-8 -35.5l-43 -199h199l-15 -72h-200l-172 -802h147l-14 -72h-455z" />
<glyph unicode="&#xfb04;" horiz-adv-x="1847" d="M1256 0l14 72h147l261 1231h-148l14 71h312l-279 -1302h148l-15 -72h-454zM635 0l14 72h148l172 802h-148l15 72h147l33 154q29 135 120 212t195 77q55 0 97.5 -21.5t76.5 -71.5l-106 -94q-8 47 -27.5 84t-58.5 37q-41 0 -64.5 -30.5t-38.5 -67.5q-8 -23 -14 -44.5 t-8 -35.5l-43 -199h199l-15 -72h-200l-172 -802h147l-14 -72h-455zM0 0l14 72h148l172 802h-148l15 72h147l33 154q29 135 120 212t195 77q55 0 97.5 -21.5t76.5 -71.5l-106 -94q-8 47 -27.5 84t-58.5 37q-41 0 -64.5 -30.5t-38.5 -67.5q-8 -23 -14 -44.5t-8 -35.5l-43 -199 h199l-15 -72h-200l-172 -802h147l-14 -72h-455z" />
</font>
</defs>
</svg>
